<?xml version="1.0" standalone="no"?>
<!DOCTYPE svg PUBLIC "-//W3C//DTD SVG 20010904//EN"
 "http://www.w3.org/TR/2001/REC-SVG-20010904/DTD/svg10.dtd">
<svg version="1.0" xmlns="http://www.w3.org/2000/svg"
 width="500.000000pt" height="500.000000pt" viewBox="0 0 500.000000 500.000000"
 preserveAspectRatio="xMidYMid meet">
<metadata>
Created by potrace 1.14, written by Peter Selinger 2001-2017
</metadata>
<g transform="translate(0.000000,500.000000) scale(0.100000,-0.100000)"
fill="#000000" stroke="none">
<path d="M2365 3830 c-579 -52 -1070 -504 -1181 -1088 -25 -131 -23 -377 5
-509 98 -470 434 -850 885 -1003 157 -53 235 -65 426 -65 193 0 275 13 435 67
384 129 702 447 833 833 54 159 67 242 67 435 0 220 -29 358 -114 553 -137
314 -439 589 -779 711 -159 57 -388 83 -577 66z m359 -35 c543 -95 965 -513
1072 -1062 24 -119 24 -347 0 -468 -104 -544 -516 -957 -1061 -1061 -132 -26
-359 -24 -492 5 -537 113 -945 533 -1038 1067 -19 111 -19 336 0 445 47 270
167 500 365 700 196 198 435 325 705 374 99 19 344 18 449 0z"/>
<path d="M2246 3492 c-3 -5 -82 -314 -176 -688 -234 -928 -245 -964 -316
-1030 l-35 -34 315 0 c174 0 316 3 316 6 0 4 -25 32 -56 63 -89 89 -157 253
-172 414 l-5 57 216 0 215 0 6 -27 c33 -162 35 -327 6 -406 -11 -30 -29 -62
-40 -72 -11 -10 -20 -22 -20 -27 0 -4 173 -8 385 -8 212 0 385 3 385 6 0 3
-11 15 -25 26 -64 50 -85 117 -305 992 -99 395 -183 723 -186 727 -7 11 -501
12 -508 1z m158 -622 c75 -300 136 -548 136 -552 0 -5 -97 -8 -217 -8 l-216 0
6 173 c6 165 31 389 62 555 38 202 80 391 86 384 3 -4 67 -252 143 -552z"/>
</g>
</svg>
