<svg xmlns="http://www.w3.org/2000/svg" xmlns:xlink="http://www.w3.org/1999/xlink" width="207.258" height="229.848" viewBox="0 0 207.258 229.848">
  <defs>
    <clipPath id="clip-path">
      <path id="Path_137" data-name="Path 137" d="M.516.8H207.773V230.645H.516Zm0,0"/>
    </clipPath>
    <clipPath id="clip-path-2">
      <path id="Path_136" data-name="Path 136" d="M15.48.8H192.813a14.963,14.963,0,0,1,14.961,14.965V215.684a14.962,14.962,0,0,1-14.961,14.961H15.48A14.963,14.963,0,0,1,.516,215.684V15.762A14.964,14.964,0,0,1,15.48.8Zm0,0"/>
    </clipPath>
    <clipPath id="clip-path-3">
      <path id="Path_144" data-name="Path 144" d="M167.047,20.773h21.7v21.7h-21.7Zm0,0"/>
    </clipPath>
    <clipPath id="clip-path-4">
      <path id="Path_146" data-name="Path 146" d="M57,42.172h94.707V121.48H57Zm0,0"/>
    </clipPath>
  </defs>
  <g id="Team_Updates-4" data-name="Team Updates-4" transform="translate(-0.516 -0.797)">
    <g id="Group_238" data-name="Group 238" clip-path="url(#clip-path)">
      <g id="Group_237" data-name="Group 237" clip-path="url(#clip-path-2)">
        <path id="Path_135" data-name="Path 135" d="M.516.8H207.773V230.645H.516Zm0,0" fill="#d6e8f7"/>
      </g>
    </g>
    <g id="Group_241" data-name="Group 241">
      <g id="Group_240" data-name="Group 240" transform="translate(47.863 177.374)">
        <g id="Group_239" data-name="Group 239">
          <path id="Path_138" data-name="Path 138" d="M0,0H10.125V-.25C7.8-1.945,6.633-4.84,6.309-8.7H13.34c.727,3.516,1.023,7.082-.8,8.453V0h12.52V-.25c-1.246,0-2.371-4.141-3.016-6.781C20-15.41,18.777-20.074,16.66-28.43H8.4c-2.117,8.355-3.266,13.043-5.387,21.4C2.344-4.391,1.246-.25,0-.25ZM8.629-27.582c1.719,6.785,2.242,8.9,3.715,14.688.273,1.125.6,2.395.9,3.691H6.285C5.984-14.039,6.957-20.3,8.629-27.582Zm0,0" fill="#caaacd"/>
        </g>
      </g>
    </g>
    <g id="Group_244" data-name="Group 244">
      <g id="Group_243" data-name="Group 243" transform="translate(72.924 177.374)">
        <g id="Group_242" data-name="Group 242">
          <path id="Path_139" data-name="Path 139" d="M1.922-23.219V-3.492C1.922-1.645,1.473-.547.3-.25V0H12.168c6.113,0,9.977-4.789,9.977-11.023,0-3.34-1.547-9.277-7.355-9.277A6.034,6.034,0,0,0,9.4-16.309V-28.9h-.25a27.259,27.259,0,0,1-8.9,2.145v.25C.871-26.508,1.922-25.562,1.922-23.219ZM9.4-14.09c0-1.273.273-2.691,2-2.691,2.219,0,3.34,3.316,3.34,6.133C14.738-5.437,13.691-.75,9.4-.5Zm0,0" fill="#caaacd"/>
        </g>
      </g>
    </g>
    <g id="Group_247" data-name="Group 247">
      <g id="Group_246" data-name="Group 246" transform="translate(96.065 177.374)">
        <g id="Group_245" data-name="Group 245">
          <path id="Path_140" data-name="Path 140" d="M11,.473c5.512,0,10.027-3.84,10.027-10.371s-4.488-10.4-10-10.4S1-16.434,1-9.9,5.484.473,11,.473ZM9.1-9.926c0-5.437-.2-9.824,1.895-9.824s1.9,4.387,1.9,9.824c0,5.488.2,9.875-1.9,9.875S9.1-4.437,9.1-9.926Zm0,0" fill="#caaacd"/>
        </g>
      </g>
    </g>
    <g id="Group_250" data-name="Group 250">
      <g id="Group_249" data-name="Group 249" transform="translate(118.083 177.374)">
        <g id="Group_248" data-name="Group 248">
          <path id="Path_141" data-name="Path 141" d="M.25-17.879c.621,0,1.672.945,1.672,3.289v8.43c0,2.594.672,6.633,5.758,6.633a6.856,6.856,0,0,0,6.109-3.766V.473h.25a1.958,1.958,0,0,1,.3-.148,30.448,30.448,0,0,1,8.6-2v-.25c-.621,0-1.668-.945-1.668-3.289V-20.273h-.25a3.092,3.092,0,0,1-.3.148,25.153,25.153,0,0,1-8.6,2v.25c.621,0,1.668.945,1.668,3.289v9.254c0,1.7-.973,3.266-2.543,3.266S9.4-3.84,9.4-5.211V-20.273h-.25a3.092,3.092,0,0,1-.3.148,25.152,25.152,0,0,1-8.6,2Zm0,0" fill="#caaacd"/>
        </g>
      </g>
    </g>
    <g id="Group_253" data-name="Group 253">
      <g id="Group_252" data-name="Group 252" transform="translate(141.274 177.374)">
        <g id="Group_251" data-name="Group 251">
          <path id="Path_142" data-name="Path 142" d="M1.672-19.375V-9.1c0,4.687.8,9.6,6.309,9.6,2.395,0,3.742-1.3,3.742-2.594-2.121,0-2.57-2.145-2.57-7.008V-19.375H11.6v-.477H9.152V-23.34H8.9A16.6,16.6,0,0,1,0-19.852v.477Zm0,0" fill="#caaacd"/>
        </g>
      </g>
    </g>
    <g id="Group_254" data-name="Group 254" clip-path="url(#clip-path-3)">
      <path id="Path_143" data-name="Path 143" d="M177.746,20.773a10.7,10.7,0,1,0,10.7,10.7A10.708,10.708,0,0,0,177.746,20.773Zm6.008,11.734h-4.973v4.977a1.035,1.035,0,0,1-2.07,0V32.508h-4.977a1.035,1.035,0,0,1,0-2.07h4.977V25.461a1.035,1.035,0,0,1,2.07,0v4.977h4.973a1.035,1.035,0,0,1,0,2.07Zm0,0" fill="#caaacd"/>
    </g>
    <g id="Group_255" data-name="Group 255" clip-path="url(#clip-path-4)">
      <path id="Path_145" data-name="Path 145" d="M99.465,63.59l-.211-.555L98.7,62.9a15.4,15.4,0,0,0-6.168.344c-3.117.832-7.414,3.051-10.328,8.875-2.5,4.988-8.8,8.246-14.348,11.09-5.961,3.188-11.16,5.82-10.395,10.258.484,2.633,2.355,4.711,5.473,6.1A18.85,18.85,0,0,0,70.7,101.02a20.455,20.455,0,0,0,11.02-2.91l.348-.211C89.551,93.188,107.02,82.1,99.465,63.59ZM80.957,96.168l-.348.207c-4.5,2.844-11.922,3.395-16.844,1.246-1.73-.691-3.812-2.078-4.227-4.5-.555-2.91,4.02-5.27,9.355-8.039C74.719,82.1,81.3,78.7,84.145,73.086c3.605-7.277,9.5-8.25,12.406-8.25a5.945,5.945,0,0,1,1.25.07C104.105,81.473,88.512,91.383,80.957,96.168Zm48.172-21.281a14.29,14.29,0,0,1-3.328-1.453,5.951,5.951,0,0,0-4.852-.625c-6.516,1.734-13.1,12.613-14.969,15.941a12.655,12.655,0,0,1-.766,1.25c-10.535,15.523-7.137,24.051-5.82,26.27,1.871,3.258,4.02,4.918,6.375,4.918h.141c3.879-.137,7.832-4.641,12.891-14.762A187.206,187.206,0,0,1,132.18,84.039l.555-.832a5.233,5.233,0,0,0,.969-4.645C133.148,76.969,131.555,75.719,129.129,74.887ZM131,82.027l-.555.832a186.637,186.637,0,0,0-13.516,22.664c-1.664,3.328-6.723,13.449-11.09,13.586-1.594.07-3.117-1.246-4.645-3.883-4.645-7.969,4.02-21.418,5.754-24.051.277-.484.555-.9.832-1.387C111.453,83.344,116.93,76,121.438,74.82a3.766,3.766,0,0,1,1.246-.141,4.18,4.18,0,0,1,2.012.555,15.618,15.618,0,0,0,3.672,1.594c1.8.625,2.91,1.457,3.258,2.426C131.973,80.016,131.7,80.918,131,82.027ZM147.914,45.5c-3.187-2.7-8.387-3.328-15.25-1.941-.691.137-1.734.277-2.91.414-7.348.973-20.934,2.773-20.934,13.309A6.394,6.394,0,0,0,110.9,62.41a9.149,9.149,0,0,0,5.895,1.664,58.214,58.214,0,0,0,9.84-1.316c3.813-.762,7.488-1.457,9.707-1.039a15.788,15.788,0,0,0,12.477-3.187c1.73-1.457,2.77-3.191,2.77-4.645A10.573,10.573,0,0,0,147.914,45.5ZM147.5,56.8a13.385,13.385,0,0,1-10.742,2.773c-2.633-.484-6.445.277-10.465,1.039-5.406,1.039-11.508,2.219-14.07.137a4.266,4.266,0,0,1-1.32-3.535c0-8.73,12.41-10.324,19.133-11.156a21.641,21.641,0,0,0,3.051-.488,35.984,35.984,0,0,1,6.1-.691c3.188,0,5.684.691,7.484,2.148a8.484,8.484,0,0,1,2.844,6.723C149.508,54.441,148.953,55.551,147.5,56.8Zm0,0" fill="#caaacd"/>
    </g>
  </g>
</svg>
