<svg xmlns="http://www.w3.org/2000/svg" width="32.001" height="19.134" viewBox="0 0 32.001 19.134">
  <g id="Group_7" data-name="Group 7" transform="translate(-287.872 -515)">
    <path id="amazon_aws_logo_icon_145507" d="M9.016,13.38a3.252,3.252,0,0,0,.12.948,5.748,5.748,0,0,0,.339.766.451.451,0,0,1,.078.245.438.438,0,0,1-.2.323l-.672.443a.489.489,0,0,1-.276.1.466.466,0,0,1-.318-.151,3.007,3.007,0,0,1-.385-.5,7.01,7.01,0,0,1-.328-.625A3.939,3.939,0,0,1,4.241,16.4a2.915,2.915,0,0,1-2.13-.766,2.747,2.747,0,0,1-.786-2.047,2.739,2.739,0,0,1,.969-2.193A3.881,3.881,0,0,1,4.9,10.563a8.573,8.573,0,0,1,1.125.083c.4.052.8.141,1.224.234V10.1a2.345,2.345,0,0,0-.5-1.7,2.448,2.448,0,0,0-1.734-.49,5.025,5.025,0,0,0-1.151.135,8.633,8.633,0,0,0-1.146.365,3.813,3.813,0,0,1-.375.141.809.809,0,0,1-.167.031c-.151,0-.224-.109-.224-.333V7.729a.68.68,0,0,1,.073-.37.735.735,0,0,1,.3-.224,5.955,5.955,0,0,1,1.339-.479,6.414,6.414,0,0,1,1.661-.2,3.877,3.877,0,0,1,2.792.865A3.518,3.518,0,0,1,9,9.933v3.448ZM4.7,15a3.373,3.373,0,0,0,1.094-.193A2.327,2.327,0,0,0,6.8,14.13a1.676,1.676,0,0,0,.365-.682,3.9,3.9,0,0,0,.1-.927v-.448a8.659,8.659,0,0,0-.979-.182,7.862,7.862,0,0,0-1-.063,2.447,2.447,0,0,0-1.583.427,1.475,1.475,0,0,0-.521,1.224A1.477,1.477,0,0,0,3.579,14.6,1.482,1.482,0,0,0,4.7,15Zm8.547,1.151a.574.574,0,0,1-.406-.109.883.883,0,0,1-.224-.411L10.115,7.4a1.765,1.765,0,0,1-.094-.427c0-.172.083-.266.25-.266h1.047a.581.581,0,0,1,.411.1.831.831,0,0,1,.214.417l1.792,7.047L15.4,7.23a.754.754,0,0,1,.2-.417.721.721,0,0,1,.427-.1h.849a.649.649,0,0,1,.427.1.728.728,0,0,1,.2.417l1.682,7.13,1.839-7.13a.968.968,0,0,1,.214-.417.69.69,0,0,1,.417-.1h.99a.235.235,0,0,1,.266.266,1.11,1.11,0,0,1-.021.172,1.756,1.756,0,0,1-.073.266l-2.568,8.224a.782.782,0,0,1-.224.417.643.643,0,0,1-.4.1H18.7a.658.658,0,0,1-.427-.1.764.764,0,0,1-.2-.427L16.428,8.762l-1.641,6.854a.794.794,0,0,1-.2.427.668.668,0,0,1-.427.1Zm13.672.287a7.16,7.16,0,0,1-1.635-.193,4.687,4.687,0,0,1-1.224-.427.718.718,0,0,1-.328-.3.725.725,0,0,1-.068-.3v-.542c0-.224.089-.333.245-.333a.618.618,0,0,1,.193.031c.063.026.161.068.266.109a5.667,5.667,0,0,0,1.172.37,6.114,6.114,0,0,0,1.266.13,2.854,2.854,0,0,0,1.552-.354,1.147,1.147,0,0,0,.557-1.01,1.072,1.072,0,0,0-.286-.745,2.781,2.781,0,0,0-1.078-.552l-1.542-.479a3.24,3.24,0,0,1-1.7-1.083,2.552,2.552,0,0,1-.536-1.547,2.362,2.362,0,0,1,.292-1.182,2.786,2.786,0,0,1,.766-.87,3.328,3.328,0,0,1,1.1-.552,4.585,4.585,0,0,1,1.344-.182,5.354,5.354,0,0,1,.714.042c.245.031.469.073.693.12.208.052.411.1.6.167a2.224,2.224,0,0,1,.448.193.931.931,0,0,1,.318.266.573.573,0,0,1,.1.354v.5c0,.224-.089.339-.245.339a1.087,1.087,0,0,1-.406-.125,4.844,4.844,0,0,0-2.042-.417,2.735,2.735,0,0,0-1.417.3,1.022,1.022,0,0,0-.5.948,1,1,0,0,0,.318.755,3.221,3.221,0,0,0,1.172.589l1.51.474a3.235,3.235,0,0,1,1.651,1.026,2.4,2.4,0,0,1,.49,1.49,2.807,2.807,0,0,1-.276,1.234,3,3,0,0,1-.776.938,3.5,3.5,0,0,1-1.182.594,5.164,5.164,0,0,1-1.526.224Zm2.015,5.171a22.943,22.943,0,0,1-12.964,3.958A23.447,23.447,0,0,1,.14,19.531c-.328-.3-.031-.7.365-.464a31.936,31.936,0,0,0,15.833,4.2A31.716,31.716,0,0,0,28.421,20.8c.583-.271,1.083.38.51.807Zm1.459-1.661c-.448-.573-2.964-.276-4.1-.135-.339.042-.4-.26-.083-.484,2-1.4,5.286-1,5.672-.531s-.109,3.771-1.979,5.344c-.286.245-.568.12-.438-.2.427-1.052,1.375-3.422.927-3.99Z" transform="translate(287.873 508.567)" fill="#fff"/>
  </g>
</svg>
