<svg xmlns="http://www.w3.org/2000/svg" xmlns:xlink="http://www.w3.org/1999/xlink" width="207.258" height="229.848" viewBox="0 0 207.258 229.848">
  <defs>
    <clipPath id="clip-path">
      <path id="Path_35" data-name="Path 35" d="M.664.855H207.922V230.7H.664Zm0,0"/>
    </clipPath>
    <clipPath id="clip-path-2">
      <path id="Path_34" data-name="Path 34" d="M15.629.855H192.957A14.964,14.964,0,0,1,207.922,15.82V215.738A14.964,14.964,0,0,1,192.957,230.7H15.629A14.964,14.964,0,0,1,.664,215.738V15.82A14.964,14.964,0,0,1,15.629.855Zm0,0"/>
    </clipPath>
    <clipPath id="clip-path-3">
      <path id="Path_41" data-name="Path 41" d="M167.055,22.25h21.7v21.7h-21.7Zm0,0"/>
    </clipPath>
    <clipPath id="clip-path-4">
      <path id="Path_43" data-name="Path 43" d="M57,44.227h92V136H57Zm0,0"/>
    </clipPath>
  </defs>
  <g id="Blog" transform="translate(-0.664 -0.855)">
    <g id="Group_61" data-name="Group 61" clip-path="url(#clip-path)">
      <g id="Group_60" data-name="Group 60" clip-path="url(#clip-path-2)">
        <path id="Path_33" data-name="Path 33" d="M.664.855H207.922V230.7H.664Zm0,0" fill="#ef601e"/>
      </g>
    </g>
    <g id="Group_64" data-name="Group 64">
      <g id="Group_63" data-name="Group 63" transform="translate(64.565 194.64)">
        <g id="Group_62" data-name="Group 62">
          <path id="Path_36" data-name="Path 36" d="M2.246-24.937V-3.492C2.246-1.645,1.8-.547.625-.25V0H15.512c5.785,0,8.754-3.789,8.754-7.855,0-4.812-2.918-7.457-8.754-8,5.859-.648,7.605-3.469,7.605-6.309,0-3.566-2.668-6.262-8.055-6.262H.625v.25C1.8-27.879,2.246-26.781,2.246-24.937ZM10.223-.5V-15.512H10.9c3.664,0,5.113,3.066,5.113,7.406C16.012-3.617,14.34-.5,11.246-.5ZM11.3-27.93c2.594,0,3.59,2.941,3.59,5.91,0,3.141-1,6.008-3.988,6.008h-.676V-27.93Zm0,0" fill="#d6e8f7"/>
        </g>
      </g>
    </g>
    <g id="Group_67" data-name="Group 67">
      <g id="Group_66" data-name="Group 66" transform="translate(89.95 194.64)">
        <g id="Group_65" data-name="Group 65">
          <path id="Path_37" data-name="Path 37" d="M.25-26.758v.25c.621,0,1.672.945,1.672,3.289V-3.492C1.922-1.645,1.473-.547.3-.25V0H11.023V-.25C9.852-.547,9.4-1.645,9.4-3.492V-28.9h-.25A27.259,27.259,0,0,1,.25-26.758Zm0,0" fill="#d6e8f7"/>
        </g>
      </g>
    </g>
    <g id="Group_70" data-name="Group 70">
      <g id="Group_69" data-name="Group 69" transform="translate(101.221 194.64)">
        <g id="Group_68" data-name="Group 68">
          <path id="Path_38" data-name="Path 38" d="M11,.473c5.512,0,10.027-3.84,10.027-10.371s-4.488-10.4-10-10.4S1-16.434,1-9.9,5.484.473,11,.473ZM9.1-9.926c0-5.437-.2-9.824,1.895-9.824s1.9,4.387,1.9,9.824c0,5.488.2,9.875-1.9,9.875S9.1-4.437,9.1-9.926Zm0,0" fill="#d6e8f7"/>
        </g>
      </g>
    </g>
    <g id="Group_73" data-name="Group 73">
      <g id="Group_72" data-name="Group 72" transform="translate(123.24 194.64)">
        <g id="Group_71" data-name="Group 71">
          <path id="Path_39" data-name="Path 39" d="M8.652,8.953c5.238,0,11.125-2.2,11.125-6.633,0-2.621-2.547-4.266-5.187-4.266-3.145,0-5.039,1.473-7.906,1.473-.574,0-1.223-.25-1.223-.824,0-2.02,3.543-2.02,4.965-2.02,5.559,0,9.273-3.391,9.273-8.5a7.893,7.893,0,0,0-3.937-7.133c-2.27-1.371-2.219-3.816-1.7-3.316.246.25.5,2.047,2.594,2.047a3,3,0,0,0,3.09-3.168,3.321,3.321,0,0,0-3.59-3.316,3.277,3.277,0,0,0-3.293,3.391,5.2,5.2,0,0,0,1.324,3.641,10.917,10.917,0,0,0-3.766-.625c-5.539,0-9.254,3.395-9.254,8.48a8.1,8.1,0,0,0,7.008,8.3C4.961-3.492,1.871-1.273,1.871,1.52A3.447,3.447,0,0,0,2.02,2.543,3.167,3.167,0,0,0,1,4.84C1,7.73,4.539,8.953,8.652,8.953Zm1.773-28.8c2.02,0,1.742,3.219,1.742,8.055,0,4.863.277,8.082-1.742,8.082S8.68-6.934,8.68-11.8C8.68-16.633,8.4-19.852,10.426-19.852ZM1.5,4.863a2.517,2.517,0,0,1,.75-1.746,5.188,5.188,0,0,0,4.66,2.492c3.992,0,5.91-1.867,8.48-1.867.672,0,1.246.348,1.246.945,0,2.094-3.965,3.84-7.93,3.84C5.512,8.527,1.5,7.656,1.5,4.863Zm0,0" fill="#d6e8f7"/>
        </g>
      </g>
    </g>
    <g id="Group_74" data-name="Group 74" clip-path="url(#clip-path-3)">
      <path id="Path_40" data-name="Path 40" d="M177.75,22.25a10.7,10.7,0,1,0,10.7,10.7A10.707,10.707,0,0,0,177.75,22.25Zm6.012,11.734h-4.977v4.973a1.035,1.035,0,0,1-2.07,0V33.984h-4.977a1.035,1.035,0,0,1,0-2.07h4.977V26.938a1.035,1.035,0,0,1,2.07,0v4.977h4.977a1.035,1.035,0,0,1,0,2.07Zm0,0" fill="#d6e8f7"/>
    </g>
    <g id="Group_75" data-name="Group 75" clip-path="url(#clip-path-4)">
      <path id="Path_42" data-name="Path 42" d="M122.539,132.758c-22.426,9.309-63.961-8.672-65.215-37.2C56.184,68.977,71.172,52.1,94.289,45.406a24.392,24.392,0,0,1,10.922-.523c11.086,1.9,34.91,8.109,40.391,26.492C152.8,95.563,144.984,123.449,122.539,132.758Zm19.254-58.316c-4.992-16.676-26.711-22.285-36.8-24.027a22.213,22.213,0,0,0-9.941.473c-21.066,6.078-34.73,21.375-33.68,45.473,1.125,25.84,38.977,42.133,59.41,33.715S148.359,96.359,141.793,74.441Zm0,0" fill="#d6e8f7"/>
    </g>
  </g>
</svg>
