<svg xmlns="http://www.w3.org/2000/svg" xmlns:xlink="http://www.w3.org/1999/xlink" width="207.258" height="229.848" viewBox="0 0 207.258 229.848">
  <defs>
    <clipPath id="clip-path">
      <path id="Path_46" data-name="Path 46" d="M.664.8H207.922V230.645H.664Zm0,0"/>
    </clipPath>
    <clipPath id="clip-path-2">
      <path id="Path_45" data-name="Path 45" d="M15.629.8H192.957a14.964,14.964,0,0,1,14.965,14.965V215.684a14.963,14.963,0,0,1-14.965,14.961H15.629A14.963,14.963,0,0,1,.664,215.684V15.762A14.964,14.964,0,0,1,15.629.8Zm0,0"/>
    </clipPath>
    <clipPath id="clip-path-3">
      <path id="Path_55" data-name="Path 55" d="M167.055,20.773h21.7v21.7h-21.7Zm0,0"/>
    </clipPath>
    <clipPath id="clip-path-4">
      <path id="Path_58" data-name="Path 58" d="M60.52,35.969H143.57V116H60.52Zm0,0"/>
    </clipPath>
    <clipPath id="clip-path-5">
      <rect id="Rectangle_2" data-name="Rectangle 2" width="84" height="81"/>
    </clipPath>
    <clipPath id="clip-path-6">
      <path id="Path_57" data-name="Path 57" d="M.574,1h83V80.8h-83Zm0,0"/>
    </clipPath>
  </defs>
  <g id="Contact" transform="translate(-0.664 -0.797)">
    <g id="Group_77" data-name="Group 77" clip-path="url(#clip-path)">
      <g id="Group_76" data-name="Group 76" clip-path="url(#clip-path-2)">
        <path id="Path_44" data-name="Path 44" d="M.664.8H207.922V230.645H.664Zm0,0" fill="#f1dfb6"/>
      </g>
    </g>
    <g id="Group_80" data-name="Group 80">
      <g id="Group_79" data-name="Group 79" transform="translate(38.319 177.374)">
        <g id="Group_78" data-name="Group 78">
          <path id="Path_47" data-name="Path 47" d="M1.121-14.215C1.121-5.012,6.883.473,13.59.473c5.637,0,7.93-2.043,7.93-2.043v-9.055h-.246C20.6-8.18,18.43,0,14.613,0c-3.84,0-5.262-7.008-5.262-14.191,0-7.23,1.422-14.187,5.262-14.187,3.816,0,6.234,5.113,6.66,8.527h.246V-28.9h-.246a2.009,2.009,0,0,1-1.449.473c-2.691,0-3.539-.473-6.234-.473C6.883-28.9,1.121-23.418,1.121-14.215Zm0,0" fill="#ef601e"/>
        </g>
      </g>
    </g>
    <g id="Group_83" data-name="Group 83">
      <g id="Group_82" data-name="Group 82" transform="translate(60.961 177.374)">
        <g id="Group_81" data-name="Group 81">
          <path id="Path_48" data-name="Path 48" d="M11,.473c5.512,0,10.027-3.84,10.027-10.371s-4.488-10.4-10-10.4S1-16.434,1-9.9,5.484.473,11,.473ZM9.1-9.926c0-5.437-.2-9.824,1.895-9.824s1.9,4.387,1.9,9.824c0,5.488.2,9.875-1.9,9.875S9.1-4.437,9.1-9.926Zm0,0" fill="#ef601e"/>
        </g>
      </g>
    </g>
    <g id="Group_86" data-name="Group 86">
      <g id="Group_85" data-name="Group 85" transform="translate(82.98 177.374)">
        <g id="Group_84" data-name="Group 84">
          <path id="Path_49" data-name="Path 49" d="M.25-18.156v.25c.621,0,1.672.949,1.672,3.293V-3.492C1.922-1.645,1.473-.547.3-.25V0H11.023V-.25C9.852-.547,9.4-1.645,9.4-3.492v-11c0-1.7.973-3.266,2.543-3.266s1.844,1.77,1.844,3.141V-3.492c0,1.848-.449,2.945-1.621,3.242V0H22.895V-.25c-1.172-.3-1.621-1.395-1.621-3.242V-13.664c0-2.594-.676-6.637-5.762-6.637A6.863,6.863,0,0,0,9.4-16.535V-20.3h-.25a1.639,1.639,0,0,1-.3.152A30.585,30.585,0,0,1,.25-18.156Zm0,0" fill="#ef601e"/>
        </g>
      </g>
    </g>
    <g id="Group_89" data-name="Group 89">
      <g id="Group_88" data-name="Group 88" transform="translate(106.121 177.374)">
        <g id="Group_87" data-name="Group 87">
          <path id="Path_50" data-name="Path 50" d="M1.672-19.375V-9.1c0,4.687.8,9.6,6.309,9.6,2.395,0,3.742-1.3,3.742-2.594-2.121,0-2.57-2.145-2.57-7.008V-19.375H11.6v-.477H9.152V-23.34H8.9A16.6,16.6,0,0,1,0-19.852v.477Zm0,0" fill="#ef601e"/>
        </g>
      </g>
    </g>
    <g id="Group_92" data-name="Group 92">
      <g id="Group_91" data-name="Group 91" transform="translate(117.217 177.374)">
        <g id="Group_90" data-name="Group 90">
          <path id="Path_51" data-name="Path 51" d="M1-4.715A5.032,5.032,0,0,0,6.133.473c2.645,0,4.641-1.344,5.637-4.488C11.922-1.871,13.242.473,15.934.473A10.256,10.256,0,0,0,21.3-1.246V-1.5C19.852-1.5,19.4-2.969,19.4-4.84v-7c0-2.77-1.621-8.457-9.426-8.457-5.461,0-7.758,2.77-7.758,5.063a2.808,2.808,0,0,0,2.969,2.82c2.344,0,3.016-2.2,4.863-2.2.5,0,1.246.148,1.246.824C11.3-11.547,1-12.445,1-4.715ZM8.453-6.781c0-5.988,3.293-5.113,3.293-7.086,0-.8-.672-1.047-1.371-1.371A2.494,2.494,0,0,1,8.7-17.68c0-.523.223-2.246,1.273-2.246,1.969,0,1.77,3.59,1.77,4.988V-4.789c0,.273-.7.848-1.371.848C9.1-3.941,8.453-5.41,8.453-6.781Zm0,0" fill="#ef601e"/>
        </g>
      </g>
    </g>
    <g id="Group_95" data-name="Group 95">
      <g id="Group_94" data-name="Group 94" transform="translate(138.762 177.374)">
        <g id="Group_93" data-name="Group 93">
          <path id="Path_52" data-name="Path 52" d="M1-9.9A10.372,10.372,0,0,0,11.4.473c4.113,0,8-2.668,8-6.16a8.149,8.149,0,0,1-3.168.648c-5.137,0-8.828-3.488-8.828-9.75,0-1.918.672-4.961,2.32-4.961.723,0,1,.6,1,1.32,0,1.547-1.348,2.371-1.348,4.738a4.27,4.27,0,0,0,4.613,4.414c2.895,0,5.039-1.82,5.039-4.789,0-4.137-4.09-6.234-8.156-6.234C5.113-20.3,1-15.637,1-9.9Zm0,0" fill="#ef601e"/>
        </g>
      </g>
    </g>
    <g id="Group_98" data-name="Group 98">
      <g id="Group_97" data-name="Group 97" transform="translate(159.16 177.374)">
        <g id="Group_96" data-name="Group 96">
          <path id="Path_53" data-name="Path 53" d="M1.672-19.375V-9.1c0,4.687.8,9.6,6.309,9.6,2.395,0,3.742-1.3,3.742-2.594-2.121,0-2.57-2.145-2.57-7.008V-19.375H11.6v-.477H9.152V-23.34H8.9A16.6,16.6,0,0,1,0-19.852v.477Zm0,0" fill="#ef601e"/>
        </g>
      </g>
    </g>
    <g id="Group_99" data-name="Group 99" clip-path="url(#clip-path-3)">
      <path id="Path_54" data-name="Path 54" d="M177.75,20.773a10.7,10.7,0,1,0,10.7,10.7A10.707,10.707,0,0,0,177.75,20.773Zm6.012,11.734h-4.977v4.977a1.035,1.035,0,0,1-2.07,0V32.508h-4.977a1.035,1.035,0,0,1,0-2.07h4.977V25.461a1.035,1.035,0,0,1,2.07,0v4.977h4.977a1.035,1.035,0,0,1,0,2.07Zm0,0" fill="#ef601e"/>
    </g>
    <g id="Group_104" data-name="Group 104" clip-path="url(#clip-path-4)">
      <g id="Group_103" data-name="Group 103">
        <g id="Group_102" data-name="Group 102" transform="translate(60 35)">
          <g id="Group_101" data-name="Group 101" clip-path="url(#clip-path-5)">
            <g id="Group_100" data-name="Group 100" clip-path="url(#clip-path-6)">
              <path id="Path_56" data-name="Path 56" d="M24.285,11.664c-.094.082-.137.121-.211.184C24.121,11.8,24.191,11.742,24.285,11.664ZM11.8,23.254l-.086.156.141-.215.063-.145ZM56.969,1.793l-1-.262.469.137ZM1.063,80.121l-.035-.031-.176-.012ZM83.789,57.84v.289l.008.168ZM27.363,21.023c.063-.02.148-.047.262-.09C27.508,20.973,27.453,20.992,27.363,21.023ZM16.824,34.039c0-.008.008-.012.012-.02A.2.2,0,0,0,16.824,34.039ZM83.785,71.973l.02,0c-.012.219-.023.5-.031.789s0,.543-.023.777c-.008.469-.016.957-.027,1.457a.782.782,0,0,1,.008.117c0,.027,0,.027-.008.047-.008.539-.016,1.078-.02,1.559.047-.48.023-.7.074-.41,0,.648-.066,0-.09.984.008.223.012.422.016.629a8.351,8.351,0,0,0,.086,1.164V77.77a9.217,9.217,0,0,1,.027,1.117c0,.2-.008.4-.012.6,0,.109,0,.219,0,.324v.41h-.187l.164.031c-.336,0-.633,0-.895-.008l-.551-.012c-.332-.012-.6-.02-.883-.027-.473.008-.9.008-1.266-.008l.316-.008c-.133,0-.277-.012-.426-.012-.223,0-.4,0-.687-.008h.02c-.836,0-1.7.031-2.172.008l-.152.035a1.624,1.624,0,0,0-.172,0c-.469-.066-1.406-.2-2.355-.34-.074-.012-.133-.02-.219-.027h.031l-.516-.07c-.184-.023-.367-.043-.562-.066.84.148,2.2.336,3.09.473-.77-.09-2.609-.316-3-.4l1,.137c-.508-.094-1.117-.191-1.8-.289L70.605,79.4a.181.181,0,0,1-.055.008h-.008c-.266,0-.9-.07-1.633-.156l.027.012c-.125-.012-.219-.023-.293-.031-.051-.008-.094-.016-.133-.02s-.078-.012-.109-.02l-.309-.035c.039-.324.078-.656.113-.977.031-.266.059-.52.082-.758.051-.48.086-.887.09-1.141.379-2.7.621-5.363,1.008-8.508-.016,1.012.09-.523.18-.7.027-.258.059-.543.1-.891-.066.32-.16.8-.074-.1-.07.961.211-1.262.145-.324l.008-.047.176-1.969c.027-.527-.109.7-.129.629.184-1.609.031-.68.125-1.746.008.082.027.027.051-.117q.023-.111.047-.281c.012-.1.027-.223.047-.352-.031-.191-.066-.41-.1-.641l.125.641-.043.574c.031-.219.059-.414.082-.574-.027-.191-.055-.355-.074-.5s-.051-.293-.07-.418c-.051-.254-.09-.461-.133-.68-.09-.441-.18-.934-.3-1.945l.07.719c-.145-1.113-.594-4-.7-5.246-.016-.105-.031-.2-.043-.293-.039-.152-.074-.242-.02.168-.117-.754-.23-1.555-.34-2.367s-.223-1.645-.332-2.441c.051-.672.1-1.324.148-1.93s.078-1.16.1-1.652l-.043.211c.039-.461.1-.828.121-1.359,0,.039,0,.043-.008.09,0-.047.008-.109.012-.172,0-.039,0-.07.008-.113l-.027-.035c.023-.25.121-1.164.16-1.848a.722.722,0,0,0,0-.09l-.055.457c.086-1.562.191-2.7.3-3.82,0-.027,0-.02,0-.078.016.008.043-.383.082-.836l-.074.441c.027-.391.051-.773.074-1.242l-.035.781c.047-.5.105-1.168.18-1.934-.023-.527.063-2.086.113-2.969l-.016.035c.02-.281.035-.559.055-.793-.141-.66-.273-1.277-.4-1.875s-.246-1.2-.363-1.785c-.238-1.172-.477-2.328-.742-3.633-.227-.832-.547-2.223-.895-3.758-.172-.77-.352-1.574-.527-2.359-.09-.395-.176-.785-.262-1.164q-.07-.287-.129-.562c-.023-.09-.043-.18-.066-.273l-.031-.129,0-.023-.02-.012c-.035-.02-.07-.043-.105-.066-.074-.043-.141-.086-.211-.129.387.23-.023-.094-.457-.387a13.375,13.375,0,0,0-1.516-.953l.207.129c-.48-.215-1.656-1-2.586-1.6l-.094-.184c-.512-.3-1.078-.645-1.668-1.016-.293-.187-.594-.379-.895-.574l-.812-.527-2.707.863c-.84.273-1.539.516-1.969.7-.668.191-1.492.461-2.156.652l.055.039c-1.832.617-2.742.922-5.016,1.656l.473-.117c-1.273.426-1.664.383-2.848.766l-.324.2c-2.234.73-4.469,1.539-6.7,2.191a1.5,1.5,0,0,0,.477-.113c-1.016.336-3.84,1.313-3.723,1.172-.238.137-2.348.766-3.5,1.109l.207-.012c-1.039.27-1.078.262-2.5.707-.246.09-.281.121-.1.07-.777.262-.77.2-1.977.621l.516-.133c-.309.1-.531.172-.7.227s-.3.094-.332.1l-.051.063c-.027.035-.055.074-.086.113-.059.078-.129.168-.223.293A23.977,23.977,0,0,0,23.2,24.41a5.647,5.647,0,0,0-.41.535c-.016.023-.023.035-.039.063a.286.286,0,0,0-.035.047c-.133.184-.273.391-.414.613-.039.09.117-.121.191-.227-1.086,1.715-1.715,2.488-2.441,3.684a.71.71,0,0,1-.1.211c.816-1.238,1.48-2.25,1.531-2.332.031.043-.668,1.117-.039.293-.609.852-1.664,2.3-2.348,3.375l-.074.148.074-.105-.449.664c-.215.34-.352.563-.566.887-.047.148-.8,1.258-1.16,1.8-.02-.074-.469.621-.09-.031-.008.016.117-.164.324-.48l.16-.227-.027.035c.234-.355.539-.82.891-1.348-.3.414-.621.852-.992,1.465-.211.258-.445.547-.574.711-.426.781-1.336,2.234-1.426,2.461-1.121,1.637-2.594,3.891-3.371,4.875-.156.23-.238.367-.3.473-.027.051-.047.094-.066.137l-.031.063-.016.035v0l.488-.7c-.137.2-.3.438-.477.7-.105.543-.223,1.148-.316,1.645a7.857,7.857,0,0,1-.234.992c-.223,1.406.207-.773-.152,1.145l.066-.254c-.574,3.8-1.3,6.117-1.914,10.336l.066-.5c-.105.594-.207,1.191-.309,1.789S8.4,58.582,8.293,59.18c.207,1.848.414,3.715.621,5.566s.426,3.7.668,5.492c.176,1.352.148,1.5.207,2.332l.094.285.094,1.422c.09,1,.223,1.867.363,2.8.066.465.137.949.2,1.473.031.262.063.535.094.824.027.309.055.629.086.969l-.043-.223-.039-.164c.023.2.051.445.082.715-.531-.027-1.152-.062-1.621-.086a2.755,2.755,0,0,0-.672-.012,3.425,3.425,0,0,0-.656-.055l-.027.027-2.25-.168c-1.742-.07.27.137-2.273.008a21.263,21.263,0,0,1-2.336-.234,6.93,6.93,0,0,0,1.008,0l-.863-.062a.7.7,0,0,0-.094-.047l-.129,0v-.113l-.023-.148.023.031v-.359l-.008-.5a6.932,6.932,0,0,0-.051,1,22.086,22.086,0,0,1-.109-2.34c.008-2.551.105-.531.129-2.273L.711,73.086l.031-.027a3.767,3.767,0,0,0-.02-.66c.047.152.016-1.836.023-2.754L.7,69.977c-.074-2.039.035-3.387.059-4.883.047-.375.09-.754.125-1.16L.98,62.512l.09-.285c.063-.832.031-.98.207-2.336.645-4.75,1.1-9.883,1.715-14.707l-.082.5c.27-1.816.418-3.3.543-4.707.063-.7.125-1.383.184-2.078q.053-.521.105-1.055c.039-.371.082-.746.125-1.133.129-.219.262-.437.4-.668.133-.215.27-.434.41-.66l-.113.234c.98-1.687-.117.242.633-.965.074-.27,1.211-2.172,1.758-3.156l-.43.777A4.482,4.482,0,0,0,7,31.559c.547-1.129,1.918-3.445,2.9-5.172.121-.137.66-.992,1.141-1.715.066-.117.125-.227.172-.328l-.078.121c.332-.551.488-.8.57-.918.051-.117.105-.234.16-.352.145-.227.27-.43.383-.625.055-.1.109-.191.16-.281s.105-.2.156-.285c.105-.1.207-.2.3-.3l-.32.285-.621,1.059.02-.035-.137.238c-.187.328-.3.52-.289.5-.418.625.012-.086-.062-.066.137-.238.34-.586.535-.914.1-.164.191-.324.273-.465.043-.066.082-.133.117-.191s.078-.125.109-.176l.066-.055.035-.023a.191.191,0,0,1,.047-.031c.289-.254.488-.422.8-.684l.6-.539-.094.09.137-.094c.031-.031.074-.066.105-.094.367-.344.434-.395.406-.359.879-.781,1.871-1.738,2.5-2.336-.727.73.238-.105.281-.082-.074.063-.984.863-2.094,1.84a.734.734,0,0,1,.2-.129c.316-.258.594-.5.871-.75l.016-.02.016-.008c.488-.437.977-.9,1.625-1.477.043-.039.043-.039.105-.1.016-.012.043-.031.063-.043.191-.168.391-.34.613-.531a2.449,2.449,0,0,0-.176.18c.313-.27.672-.609,1.016-.93.031-.035.07-.074.086-.094.008,0,.051-.039.07-.051.191-.18.379-.348.543-.488a2.186,2.186,0,0,0,.418-.316,4.208,4.208,0,0,0-.418.316l.059-.1a1.092,1.092,0,0,1,.363-.219c.262-.223.621-.539,1.027-.895a14.364,14.364,0,0,1,1.145-1.062l-.379.379c.227-.2.371-.32.508-.441.07-.066.18-.168.313-.289.2-.2.383-.367.719-.66a.659.659,0,0,0-.062.066c.43-.387.914-.828,1.359-1.227.191-.191.375-.379.691-.7l-.109.164a1.479,1.479,0,0,0,.113-.1l-.035.016c.016-.008.063-.047.09-.062.9-.836,2.332-2.168,2.555-2.3-.016,0-.012-.008.008-.035A.479.479,0,0,1,28.75,7.6c.016-.016.031-.035.051-.055s.066-.059.1-.094q.158-.047.375-.105c.121-.035.262-.074.41-.113.3-.074.637-.164.98-.25.684-.172,1.379-.348,1.789-.449a1.588,1.588,0,0,0-.465.16c2.23-.652,4.547-1.176,6.824-1.762l.191-.008c.066-.027.117-.047.18-.07.215-.047.621-.148,1.039-.254a17.409,17.409,0,0,1,1.781-.574l-.461.16c2.309-.609,3.242-.844,5.113-1.309l-.023.063c.664-.2,1.5-.414,2.168-.613.8-.133,2.348-.555,4.051-1.008l-.023-.008c.117-.027.188-.043.227-.055s.055-.012.055-.008L54,1.016c.531.148,1.063.3,1.582.438.5.145.984.285,1.438.426.074,0,.422.09.828.2l.094-.023c.648.184,1.395.383,2,.563,1.086.289,2.074.59,3,.871.168.027.219.023-.012-.051.867.258,1.871.543,2.891.828l.074.016a.184.184,0,0,0,.035.012c.449.129.9.254,1.348.379.273.063.508.117.629.148a16.39,16.39,0,0,1,1.664.5c.855.246,1.605.465,2.121.637.383.1.734.191,1.1.289-.047-.016-.059-.023-.117-.043l-.414-.1c-.379-.113-.879-.262-.406-.156L72,6.012c.6.141,2.23.594,1.859.453.832.25.434.156-.172,0,.484.121.9.234,1.3.344.656.172,1.313.34,2,.52.148.484.3.98.461,1.5.145.477.293.969.449,1.492l-.02-.031c.137.488.344,1.215.512,1.84a5.867,5.867,0,0,0-.129-.609c.383,1.438.824,2.652,1.074,3.461l-.207-.754c.125.449.234.816.348,1.191L79.3,15a7.173,7.173,0,0,0,.266.8c.09.4-.09-.07,0,.359.145.441.293.895.449,1.379.023.027.129.285-.008-.2.066.227.145.477.234.758L80.2,17.91c.582,1.746.18.832.727,2.66-.035-.242.191.4.273.707-.223-.738-.16-.336.016.348.09.273.152.484.207.664.023.074.051.148.074.227l-.027-.062c.129.441.168.648.293,1.063l-.156-.492c.383,1.32.9,2.945,1.41,4.578.035.039.027-.055.137.273.156.594.27.957.379,1.285.055.164.109.32.164.492.027.09.059.18.09.277s.07.227.109.355c0,.105,0,.223,0,.352,0,.113,0,.234-.008.371-.035-.363-.039-.449-.059.1.016.449.023.977.031,1.539,0,.117,0,.238,0,.355.008,1.109.016,2.238.02,2.84l-.035-.719c.035,1.289,0,1.754-.027,2.32v.383l-.008-.277c-.016.414-.027.9,0,1.8l.055-1.3a5.241,5.241,0,0,0,.047,1.484c-.027.855-.059.445-.074,1.063,0,.176,0,.34-.008.535v.152l0-.016a4.691,4.691,0,0,1-.047.734l.051,1.066c.012.883-.012,1.414-.039,1.914.008-.051.02-.141.035-.277,0,.605,0,1.188,0,1.758,0-.1,0-.145.012-.3,0,.59,0,1.113-.02,1.168v.172c0,.137,0,.309,0,.523,0,.371-.008.734-.012,1.1l.008.6-.008-.094v.012c-.012,1.234-.012,2.434.012,3.637-.055.531-.059,1.785-.062,2.922,0,.742.012,1.422.043,1.926-.012,1.289-.02,2.816-.027,4.02v.133l.012-.187c.012.469.008.75,0,.961,0,.426,0,.836,0,1.105-.008-.238-.016-.516-.023-.809-.012.137-.023.266-.035.43.012.43.02.816.027,1.066l-.039.176v.031c.063.984.035-1.023.059-.41.125.27-.02,2.32.055,3.617l.008-.316C83.867,68.934,83.777,70.359,83.785,71.973Zm-.023-41.836a.885.885,0,0,0,.031.16c0,.023,0,.055,0,.086.012.129.02.289.027.465l.008-.555-.059-.2C83.758,30.086,83.758,30.105,83.762,30.137ZM12.48,21.992c-.012.016-.027.035-.047.066s-.039.055-.066.094c-.051.082-.125.207-.23.395l-.062.164.02-.051Zm5.5,10.418-.422.629-.035.039.121-.129A3.819,3.819,0,0,0,17.977,32.41ZM57.707,2.082a.325.325,0,0,0,.059.016h.008ZM21.477,27S21.48,27,21.477,27Zm58.531-9.668c-.023-.09-.055-.2-.1-.348C79.938,17.094,79.973,17.211,80.008,17.336Zm-62.637.4h0C17.383,17.734,17.379,17.734,17.371,17.738Zm-5.84,6a.069.069,0,0,1-.016.02A.107.107,0,0,0,11.531,23.738Zm5.648,9.746-.129.223.1-.148.133-.191Zm1.934-17.355c.047-.023-.629.6.059.008C19.664,15.676,19.559,15.766,19.113,16.129ZM64.926,4l-1.117-.328.293.09ZM83.785,56.453l.063.211C83.867,55.883,83.8,55.984,83.785,56.453Zm-5.7,23.77a12.2,12.2,0,0,0,1.543-.02C79.32,80.2,78.707,80.219,78.09,80.223ZM59.465,12.32l.859.574-.449-.312Zm0,0" fill="#ef601e"/>
            </g>
          </g>
        </g>
      </g>
    </g>
  </g>
</svg>