<svg xmlns="http://www.w3.org/2000/svg" width="21.549" height="24" viewBox="0 0 21.549 24">
  <path id="contentful_logo_icon_247280" d="M21.875,16.361a3.66,3.66,0,0,0-2.365-1.19,2.4,2.4,0,0,0-1.815.858,6.358,6.358,0,0,1-4.25,1.921,6.016,6.016,0,0,1-4.423-1.805,5.8,5.8,0,0,1-1.3-6.3,5.557,5.557,0,0,1,5.131-3.707l.044,0A5.968,5.968,0,0,1,17.22,7.685a3.789,3.789,0,0,0,2.475,1.228,3,3,0,0,0,2.27-1.055,2.622,2.622,0,0,0,.8-2.112,5.057,5.057,0,0,0-2.03-3.04A12.156,12.156,0,0,0,16.256.412c-2.52-.695-6.42-.853-10.685,2.349a7.31,7.31,0,0,0-.557.49A3.016,3.016,0,0,0,4.3,4a12.469,12.469,0,0,0-3.064,8.677,11.808,11.808,0,0,0,5.646,9.51A12.813,12.813,0,0,0,13.375,24a11.88,11.88,0,0,0,7.005-2.322,4.513,4.513,0,0,0,2.1-2.52,3.352,3.352,0,0,0-.562-2.737l-.046-.06ZM4.943,18.331A1.977,1.977,0,1,1,6.92,20.308,1.979,1.979,0,0,1,4.943,18.331ZM5.082,4.674c.236-.275.451-.5.628-.67a1.985,1.985,0,1,1-.628.671ZM13.249,1a10.993,10.993,0,0,1,6.826,2.486l.043.034a4.041,4.041,0,0,1,1.63,2.324,1.632,1.632,0,0,1-.52,1.313,2.023,2.023,0,0,1-1.5.738,2.812,2.812,0,0,1-1.76-.9l-.042-.044a6.911,6.911,0,0,0-5.13-1.822,6.82,6.82,0,0,0-3.012.818A3,3,0,0,0,7.44,2.727,11.072,11.072,0,0,1,13.248,1ZM3.884,6.34A2.969,2.969,0,0,0,7.156,8.626a7.336,7.336,0,0,0-.39.866,7.009,7.009,0,0,0,.359,5.854c-.068-.005-.136-.01-.2-.01a3,3,0,0,0-2.967,2.6,10.075,10.075,0,0,1-1.7-5.288,11.43,11.43,0,0,1,1.63-6.309ZM21.5,18.9a3.564,3.564,0,0,1-1.627,1.9l-.058.036a11.025,11.025,0,0,1-12.382.5l-.036-.022-.034-.02A3,3,0,0,0,9.9,18.064a6.684,6.684,0,0,0,3.58.906,7.429,7.429,0,0,0,4.962-2.25,1.407,1.407,0,0,1,1.048-.53h0a2.6,2.6,0,0,1,1.593.826A2.358,2.358,0,0,1,21.5,18.9Z" transform="translate(-1.225 0)" fill="#fff"/>
</svg>
