<svg xmlns="http://www.w3.org/2000/svg" width="64.779" height="24.033" viewBox="0 0 64.779 24.033">
  <g id="Group_4" data-name="Group 4" transform="translate(-90.097 -262)">
    <g id="google_analytics_logo_icon_169085" transform="translate(56.996 279.353)">
      <g id="Group_1" data-name="Group 1" transform="translate(53.844 -17.353)">
        <path id="Path_1" data-name="Path 1" d="M71.613,6.377l1.42,3.73H70.282l1.332-3.73ZM71.08,5.128,67.973,13.3h1.154l.8-2.219h3.462l.8,2.219h1.154L72.233,5.128H71.079ZM87.855,13.3h1.071V5.134H87.855V13.3ZM76.939,8.5a2.272,2.272,0,0,1,1.776-.977c1.42,0,2.131.977,2.131,2.4v3.462H79.775V10.1c0-1.154-.622-1.6-1.42-1.6a1.654,1.654,0,0,0-1.509,1.687V13.3H75.775V7.622h1.071l.089.888Zm4.794,3.113c0-1.249,1.154-1.953,2.486-1.953a2.425,2.425,0,0,1,1.509.355V9.838a1.327,1.327,0,0,0-1.42-1.332,1.3,1.3,0,0,0-1.332.8L82,8.861a2.555,2.555,0,0,1,4.794,1.065V13.3h-.977v-.8h-.089a2.139,2.139,0,0,1-1.864.977,1.945,1.945,0,0,1-2.131-1.864m3.995-.71a2.232,2.232,0,0,0-1.332-.355c-1.071,0-1.509.622-1.509,1.071,0,.622.622.888,1.154.888a1.731,1.731,0,0,0,1.687-1.6" transform="translate(-67.973 8.244)" fill="#fff"/>
        <path id="Path_2" data-name="Path 2" d="M105.075,17.3l1.249-2.93L104.1,9.222h1.071l1.687,3.906,1.687-3.906h1.071L106.158,17.3h-1.071ZM120.7,11.085a1.685,1.685,0,0,0-1.509-1.154,1.816,1.816,0,0,0-1.687,1.953,1.816,1.816,0,0,0,1.687,1.953,1.718,1.718,0,0,0,1.509-1.071l.888.533a2.608,2.608,0,0,1-2.4,1.6,2.89,2.89,0,0,1-2.752-3.019,2.839,2.839,0,0,1,2.752-3.019,2.6,2.6,0,0,1,2.4,1.6l-.888.622Z" transform="translate(-82.613 6.732)" fill="#fff" fill-rule="evenodd"/>
        <path id="Path_3" data-name="Path 3" d="M131.528,15.052c1.42,0,2.131-.8,2.131-1.776,0-2.131-3.107-1.332-3.107-2.574,0-.444.355-.71.977-.71a1.768,1.768,0,0,1,1.509.71l.622-.622A3.3,3.3,0,0,0,131.44,9.01a1.807,1.807,0,0,0-2.042,1.776c0,2.042,3.2,1.332,3.2,2.4,0,.533-.355.888-1.071.888a1.745,1.745,0,0,1-1.42-.888l-.789.628a3.507,3.507,0,0,0,2.219,1.249Zm-10.121-.177h1.071V9.193h-1.071Z" transform="translate(-89.623 6.672)" fill="#fff"/>
        <path id="Path_4" data-name="Path 4" d="M118.82,4.7a.71.71,0,0,1,0,1.42.764.764,0,0,1-.71-.71A.764.764,0,0,1,118.82,4.7Zm-1.509,7.547.178.8h-1.071c-.977,0-1.42-.71-1.42-1.776V8.507h-1.071V7.436H115V5.76h1.071V7.447h1.249V8.518h-1.249v2.93c0,.8.622.8,1.249.8Z" transform="translate(-86.592 8.418)" fill="#fff" fill-rule="evenodd"/>
        <path id="Path_5" data-name="Path 5" d="M73.782-13v1.332H76.89a2.668,2.668,0,0,1-.71,1.6,3.189,3.189,0,0,1-2.4.977,3.392,3.392,0,0,1-3.374-3.462,3.449,3.449,0,0,1,3.374-3.462,3.433,3.433,0,0,1,2.308.888l.888-.888a4.617,4.617,0,0,0-3.2-1.332,4.813,4.813,0,0,0-4.794,4.7,4.812,4.812,0,0,0,4.794,4.7,4.15,4.15,0,0,0,3.285-1.332,4.193,4.193,0,0,0,1.154-3.019,2.192,2.192,0,0,0-.089-.8h-4.35Zm7.9-1.071a2.944,2.944,0,0,0-3.019,3.019,2.944,2.944,0,0,0,3.019,3.019,2.992,2.992,0,0,0,2.143-.876,2.992,2.992,0,0,0,.876-2.143A2.941,2.941,0,0,0,81.683-14.075Zm0,4.878A1.788,1.788,0,0,1,80-11.061a1.783,1.783,0,0,1,1.687-1.858,1.735,1.735,0,0,1,1.688,1.862,1.737,1.737,0,0,1-1.687,1.864Zm14.556-4.257a2.3,2.3,0,0,0-1.687-.71,2.961,2.961,0,0,0-2.841,3.019,2.961,2.961,0,0,0,2.841,3.019,2.091,2.091,0,0,0,1.6-.71h.089v.444c0,1.154-.622,1.776-1.6,1.776a1.694,1.694,0,0,1-1.509-1.071l-1.154.444a2.938,2.938,0,0,0,2.664,1.776c1.6,0,2.93-.888,2.93-3.2v-5.5H96.322v.71ZM94.729-9.192a1.721,1.721,0,0,1-1.6-1.864,1.721,1.721,0,0,1,1.6-1.864,1.721,1.721,0,0,1,1.6,1.864A1.721,1.721,0,0,1,94.729-9.192ZM88.247-14.07a2.944,2.944,0,0,0-3.019,3.019,2.944,2.944,0,0,0,3.019,3.019,2.992,2.992,0,0,0,2.143-.876,2.992,2.992,0,0,0,.876-2.143A2.89,2.89,0,0,0,88.247-14.07Zm0,4.878a1.788,1.788,0,0,1-1.687-1.864,1.788,1.788,0,0,1,1.687-1.864,1.733,1.733,0,0,1,1.687,1.864A1.733,1.733,0,0,1,88.247-9.192Zm10.311-8.073h1.332v9.233H98.558Zm4.972,8.079a1.718,1.718,0,0,1-1.509-.888l4.084-1.687-.178-.355a2.86,2.86,0,0,0-2.574-1.953,2.854,2.854,0,0,0-2.841,3.019,2.992,2.992,0,0,0,.876,2.143,2.992,2.992,0,0,0,2.143.876A3.23,3.23,0,0,0,106.1-9.365l-1.071-.71a1.718,1.718,0,0,1-1.509.888Zm-.089-3.73a1.189,1.189,0,0,1,1.154.71l-2.752,1.154a1.665,1.665,0,0,1,1.6-1.864Z" transform="translate(-68.384 17.353)" fill="#fff"/>
      </g>
      <g id="Group_3" data-name="Group 3" transform="translate(33.101 -16.845)">
        <path id="Path_6" data-name="Path 6" d="M25.821,4.07v15.6A2.516,2.516,0,0,0,28.3,22.383a2.483,2.483,0,0,0,2.481-2.717V4.188a2.484,2.484,0,0,0-2.481-2.6A2.522,2.522,0,0,0,25.821,4.07Z" transform="translate(-12.825 -1.589)" fill="#fff"/>
        <g id="Group_2" data-name="Group 2" transform="translate(0 7.916)">
          <path id="Path_7" data-name="Path 7" d="M14.9,17.378v7.679a2.516,2.516,0,0,0,2.481,2.717,2.483,2.483,0,0,0,2.481-2.717V17.5a2.484,2.484,0,0,0-2.481-2.6A2.522,2.522,0,0,0,14.9,17.378Z" transform="translate(-8.398 -14.896)" fill="#fff"/>
          <circle id="Ellipse_1" data-name="Ellipse 1" cx="2.481" cy="2.481" r="2.481" transform="translate(0 7.916)" fill="#fff"/>
        </g>
      </g>
    </g>
  </g>
</svg>
