<svg xmlns="http://www.w3.org/2000/svg" xmlns:xlink="http://www.w3.org/1999/xlink" width="207.262" height="229.848" viewBox="0 0 207.262 229.848">
  <defs>
    <clipPath id="clip-path">
      <path id="Path_103" data-name="Path 103" d="M.367.855H207.629V230.7H.367Zm0,0"/>
    </clipPath>
    <clipPath id="clip-path-2">
      <path id="Path_102" data-name="Path 102" d="M15.332.855H192.664A14.966,14.966,0,0,1,207.629,15.82V215.738A14.966,14.966,0,0,1,192.664,230.7H15.332A14.964,14.964,0,0,1,.367,215.738V15.82A14.964,14.964,0,0,1,15.332.855Zm0,0"/>
    </clipPath>
    <clipPath id="clip-path-3">
      <path id="Path_109" data-name="Path 109" d="M166.758,22.25h21.7v21.7h-21.7Zm0,0"/>
    </clipPath>
    <clipPath id="clip-path-4">
      <path id="Path_113" data-name="Path 113" d="M54,42h99v60H54Zm0,0"/>
    </clipPath>
    <clipPath id="clip-path-5">
      <path id="Path_112" data-name="Path 112" d="M53.148,100.723l1.414-59.09,100.23,2.395-1.414,59.09Zm0,0"/>
    </clipPath>
  </defs>
  <g id="Team_Updates-2" data-name="Team Updates-2" transform="translate(-0.367 -0.855)">
    <g id="Group_183" data-name="Group 183" clip-path="url(#clip-path)">
      <g id="Group_182" data-name="Group 182" clip-path="url(#clip-path-2)">
        <path id="Path_101" data-name="Path 101" d="M.367.855H207.629V230.7H.367Zm0,0" fill="#caaacd"/>
      </g>
    </g>
    <g id="Group_186" data-name="Group 186">
      <g id="Group_185" data-name="Group 185" transform="translate(49.083 177.431)">
        <g id="Group_184" data-name="Group 184">
          <path id="Path_104" data-name="Path 104" d="M2.246-24.937V-3.492C2.246-1.645,1.8-.547.625-.25V0H11.844V-.25c-1.172-.3-1.621-1.395-1.621-3.242V-16.258h4.391V-3.492c0,1.848-.449,2.945-1.621,3.242V0H24.215V-.25c-1.172-.3-1.621-1.395-1.621-3.242V-24.937c0-1.844.449-2.941,1.621-3.242v-.25H12.992v.25c1.172.3,1.621,1.4,1.621,3.242v8.18H10.223v-8.18c0-1.844.449-2.941,1.621-3.242v-.25H.625v.25C1.8-27.879,2.246-26.781,2.246-24.937Zm0,0" fill="#fdf3dd"/>
        </g>
      </g>
    </g>
    <g id="Group_189" data-name="Group 189">
      <g id="Group_188" data-name="Group 188" transform="translate(73.92 177.431)">
        <g id="Group_187" data-name="Group 187">
          <path id="Path_105" data-name="Path 105" d="M11,.473c5.512,0,10.027-3.84,10.027-10.371s-4.488-10.4-10-10.4S1-16.434,1-9.9,5.484.473,11,.473ZM9.1-9.926c0-5.437-.2-9.824,1.895-9.824s1.9,4.387,1.9,9.824c0,5.488.2,9.875-1.9,9.875S9.1-4.437,9.1-9.926Zm0,0" fill="#fdf3dd"/>
        </g>
      </g>
    </g>
    <g id="Group_192" data-name="Group 192">
      <g id="Group_191" data-name="Group 191" transform="translate(95.938 177.431)">
        <g id="Group_190" data-name="Group 190">
          <path id="Path_106" data-name="Path 106" d="M.25-17.906c.621,0,1.672.949,1.672,3.293V-3.492C1.922-1.645,1.473-.547.3-.25V0H11.023V-.25C9.852-.547,9.4-1.645,9.4-3.492v-11c0-1.7.973-3.266,2.543-3.266s1.844,1.77,1.844,3.141V-3.492c0,1.848-.449,2.945-1.621,3.242V0H22.895V-.25c-1.172-.3-1.621-1.395-1.621-3.242,0-1.746-.027-7.355-.027-11.023,0-1.668.973-3.238,2.52-3.238,1.57,0,1.844,1.77,1.844,3.141V-3.492c0,1.848-.445,2.945-1.621,3.242V0H34.715V-.25c-1.172-.3-1.621-1.395-1.621-3.242V-13.664c0-2.594-.676-6.637-5.762-6.637a6.74,6.74,0,0,0-6.285,4.215c-.5-2.145-1.871-4.215-5.535-4.215A6.863,6.863,0,0,0,9.4-16.535V-20.3h-.25a1.639,1.639,0,0,1-.3.152,30.585,30.585,0,0,1-8.6,1.992Zm0,0" fill="#fdf3dd"/>
        </g>
      </g>
    </g>
    <g id="Group_195" data-name="Group 195">
      <g id="Group_194" data-name="Group 194" transform="translate(130.899 177.431)">
        <g id="Group_193" data-name="Group 193">
          <path id="Path_107" data-name="Path 107" d="M11.4.473c4.113,0,8-2.668,8-6.16a8.149,8.149,0,0,1-3.168.648A8.235,8.235,0,0,1,8.926-8.828h2.246c6.012,0,8.555-1.719,8.555-5.012,0-3.516-3.191-6.434-8.855-6.434C5.113-20.273,1-15.637,1-9.9A10.372,10.372,0,0,0,11.4.473ZM8.652-9.3a11.486,11.486,0,0,1-1.246-5.512c0-1.895.723-4.914,3.02-4.914,1.941,0,2.816,2.7,2.816,4.789C13.242-12.32,12.121-9.3,8.8-9.3Zm0,0" fill="#fdf3dd"/>
        </g>
      </g>
    </g>
    <g id="Group_196" data-name="Group 196" clip-path="url(#clip-path-3)">
      <path id="Path_108" data-name="Path 108" d="M177.457,22.25a10.7,10.7,0,1,0,10.7,10.7A10.708,10.708,0,0,0,177.457,22.25Zm6.008,11.734h-4.973v4.973a1.035,1.035,0,0,1-2.07,0V33.984h-4.977a1.035,1.035,0,0,1,0-2.07h4.977V26.938a1.035,1.035,0,0,1,2.07,0v4.977h4.973a1.035,1.035,0,0,1,0,2.07Zm0,0" fill="#fdf3dd"/>
    </g>
    <g id="Group_199" data-name="Group 199" clip-path="url(#clip-path-4)">
      <g id="Group_198" data-name="Group 198" clip-path="url(#clip-path-5)">
        <g id="Group_197" data-name="Group 197" clip-path="url(#clip-path-5)">
          <path id="Path_110" data-name="Path 110" d="M108.34,42.973c9.664.383,16.793.949,23.578,3.293A31.133,31.133,0,0,1,150,61.477c4.129,7.883,3.02,14.852-3.328,21.1-5.738,5.566-12.715,9.117-20.074,11.918a92.028,92.028,0,0,1-40.125,6.332,45.257,45.257,0,0,1-15.824-3.949C62.168,92.9,56.516,86.52,54.906,77.109c-.953-5.777.219-11.156,4.145-15.672a3.5,3.5,0,0,0,.664-.828C64.4,51.4,72.391,46.926,82.141,45.621,91.7,44.313,101.281,43.7,108.34,42.973Zm3.426,14.418c-8.7.734-17.191,1.375-25.691,2.262-3.531.363-7.07,1.121-9.906,3.531q-3.264,2.748-6.527,5.5a4.507,4.507,0,0,0-.93,1.465,7.91,7.91,0,0,0,.957,7.758,15.915,15.915,0,0,0,7.4,5.883,38.08,38.08,0,0,0,16.746,2.73c12.215-.6,24.027-3.047,34.879-8.988a52.838,52.838,0,0,0,6.855-4.5c2.828-2.266,2.9-3.207.793-6.281a16.761,16.761,0,0,0-10.641-7.2C121.059,58.652,116.363,58.094,111.766,57.391Zm0,0" fill="#e8cace"/>
        </g>
      </g>
    </g>
  </g>
</svg>
