<svg xmlns="http://www.w3.org/2000/svg" xmlns:xlink="http://www.w3.org/1999/xlink" width="207.262" height="229.848" viewBox="0 0 207.262 229.848">
  <defs>
    <clipPath id="clip-path">
      <path id="Path_115" data-name="Path 115" d="M166.758,20.773h21.7v21.7h-21.7Zm0,0"/>
    </clipPath>
    <clipPath id="clip-path-2">
      <path id="Path_118" data-name="Path 118" d="M.367.8H207.629V230.645H.367Zm0,0"/>
    </clipPath>
    <clipPath id="clip-path-3">
      <path id="Path_117" data-name="Path 117" d="M15.332.8H192.664a14.966,14.966,0,0,1,14.965,14.965V215.684a14.966,14.966,0,0,1-14.965,14.961H15.332A14.963,14.963,0,0,1,.367,215.684V15.762A14.964,14.964,0,0,1,15.332.8Zm0,0"/>
    </clipPath>
    <clipPath id="clip-path-4">
      <path id="Path_132" data-name="Path 132" d="M75,29h68v94H75Zm0,0"/>
    </clipPath>
    <clipPath id="clip-path-5">
      <path id="Path_131" data-name="Path 131" d="M80.336,24.719l65.992,8.91-13.117,97.133-65.992-8.91Zm0,0"/>
    </clipPath>
    <clipPath id="clip-path-7">
      <path id="Path_134" data-name="Path 134" d="M166.758,19.8H189.2V42.25H166.758Zm0,0"/>
    </clipPath>
  </defs>
  <g id="Team_Updates-3" data-name="Team Updates-3" transform="translate(-0.367 -0.797)">
    <g id="Group_200" data-name="Group 200" clip-path="url(#clip-path)">
      <path id="Path_114" data-name="Path 114" d="M177.457,20.773a10.7,10.7,0,1,0,10.7,10.7A10.708,10.708,0,0,0,177.457,20.773Zm6.008,11.734h-4.973v4.977a1.035,1.035,0,0,1-2.07,0V32.508h-4.977a1.035,1.035,0,0,1,0-2.07h4.977V25.461a1.035,1.035,0,0,1,2.07,0v4.977h4.973a1.035,1.035,0,0,1,0,2.07Zm0,0" fill="#d6e8f7"/>
    </g>
    <g id="Group_202" data-name="Group 202" clip-path="url(#clip-path-2)">
      <g id="Group_201" data-name="Group 201" clip-path="url(#clip-path-3)">
        <path id="Path_116" data-name="Path 116" d="M.367.8H207.629V230.645H.367Zm0,0" fill="#ef601e"/>
      </g>
    </g>
    <g id="Group_205" data-name="Group 205">
      <g id="Group_204" data-name="Group 204" transform="translate(73.295 160.165)">
        <g id="Group_203" data-name="Group 203">
          <path id="Path_119" data-name="Path 119" d="M.625-.25V0H9.477V-.25C5.809-1.2,2.742-12.992,2.742-21.047v-5.461L11.348,0h2.219l6.086-25.984V-3.492c0,1.848-.449,2.945-1.621,3.242V0H29.25V-.25c-1.172-.3-1.617-1.395-1.617-3.242V-24.937c0-1.844.445-2.941,1.617-3.242v-.25h-9.6L15.66-11.4,10.125-28.43H.625v.25c1.172.3,1.621,1.4,1.621,3.242V-3.492C2.246-1.645,1.8-.547.625-.25Zm0,0" fill="#d6e8f7"/>
        </g>
      </g>
    </g>
    <g id="Group_208" data-name="Group 208">
      <g id="Group_207" data-name="Group 207" transform="translate(103.168 160.165)">
        <g id="Group_206" data-name="Group 206">
          <path id="Path_120" data-name="Path 120" d="M0-19.852v.25c2.07,0,2.719,1.4,3.242,3.02C5.484-9.676,6.434-6.684,8.2,0h6.586C14.141,1.7,11.4,2.844,8.828,2.844A4.973,4.973,0,0,1,4.465.949H4.238V7.309c.625,1.145,2.5,1.645,3.594,1.645,4.91,0,7.332-8.5,7.453-8.953C17.059-6.684,18-9.676,20.25-16.582c.523-1.621,1.121-3.02,3.242-3.02v-.25H14.863v.3h.574c4.063,0,1.422,11.77.047,17.48C14.438-6.035,13.117-9.227,11.8-14.914c-.426-1.793-.227-4.637,1.918-4.637v-.3Zm0,0" fill="#d6e8f7"/>
        </g>
      </g>
    </g>
    <g id="Group_211" data-name="Group 211">
      <g id="Group_210" data-name="Group 210" transform="translate(29.384 194.583)">
        <g id="Group_209" data-name="Group 209">
          <path id="Path_121" data-name="Path 121" d="M11.844,0V-.25c-1.172-.3-1.621-1.395-1.621-3.242v-6.883h3.793c5.734,0,9.75-3.117,9.75-9.25,0-5.289-3.715-8.8-8.555-8.8H.625v.25c1.172.3,1.621,1.4,1.621,3.242V-3.492C2.246-1.645,1.8-.547.625-.25V0ZM10.223-27.957c4.293.227,5.289,4.09,5.289,8.3,0,4.738-.949,8.656-4.812,8.656h-.477Zm0,0" fill="#d6e8f7"/>
        </g>
      </g>
    </g>
    <g id="Group_214" data-name="Group 214">
      <g id="Group_213" data-name="Group 213" transform="translate(54.271 194.583)">
        <g id="Group_212" data-name="Group 212">
          <path id="Path_122" data-name="Path 122" d="M.25-17.906c.621,0,1.672.949,1.672,3.293V-3.492C1.922-1.645,1.473-.547.3-.25V0H11.023V-.25C9.852-.547,9.4-1.645,9.4-3.492V-14.863A2.934,2.934,0,0,1,11.8-17.93a.526.526,0,0,1,.6.547c0,.9-.75,1.223-.75,2.7a4.005,4.005,0,0,0,4.242,4.238c2.566,0,4.262-1.8,4.262-4.613A5.074,5.074,0,0,0,14.789-20.3,5.892,5.892,0,0,0,9.4-16.781V-20.3h-.25a27.259,27.259,0,0,1-8.9,2.145Zm0,0" fill="#d6e8f7"/>
        </g>
      </g>
    </g>
    <g id="Group_217" data-name="Group 217">
      <g id="Group_216" data-name="Group 216" transform="translate(74.668 194.583)">
        <g id="Group_215" data-name="Group 215">
          <path id="Path_123" data-name="Path 123" d="M11,.473c5.512,0,10.027-3.84,10.027-10.371s-4.488-10.4-10-10.4S1-16.434,1-9.9,5.484.473,11,.473ZM9.1-9.926c0-5.437-.2-9.824,1.895-9.824s1.9,4.387,1.9,9.824c0,5.488.2,9.875-1.9,9.875S9.1-4.437,9.1-9.926Zm0,0" fill="#d6e8f7"/>
        </g>
      </g>
    </g>
    <g id="Group_220" data-name="Group 220">
      <g id="Group_219" data-name="Group 219" transform="translate(96.687 194.583)">
        <g id="Group_218" data-name="Group 218">
          <path id="Path_124" data-name="Path 124" d="M-1.871,7.008c0,1.3,1.895,2.566,4.016,2.566C8.652,9.574,9.4,4.688,9.4,0V-20.3h-.25a1.639,1.639,0,0,1-.3.152,30.585,30.585,0,0,1-8.6,1.992v.25c.621,0,1.672.949,1.672,3.293V0C1.922,4.863.25,7.008-1.871,7.008ZM.9-25.285a4.614,4.614,0,0,0,4.586,4.613A4.62,4.62,0,0,0,10.1-25.285a4.615,4.615,0,0,0-4.617-4.59A4.609,4.609,0,0,0,.9-25.285Zm0,0" fill="#d6e8f7"/>
        </g>
      </g>
    </g>
    <g id="Group_223" data-name="Group 223">
      <g id="Group_222" data-name="Group 222" transform="translate(107.784 194.583)">
        <g id="Group_221" data-name="Group 221">
          <path id="Path_125" data-name="Path 125" d="M11.4.473c4.113,0,8-2.668,8-6.16a8.149,8.149,0,0,1-3.168.648A8.235,8.235,0,0,1,8.926-8.828h2.246c6.012,0,8.555-1.719,8.555-5.012,0-3.516-3.191-6.434-8.855-6.434C5.113-20.273,1-15.637,1-9.9A10.372,10.372,0,0,0,11.4.473ZM8.652-9.3a11.486,11.486,0,0,1-1.246-5.512c0-1.895.723-4.914,3.02-4.914,1.941,0,2.816,2.7,2.816,4.789C13.242-12.32,12.121-9.3,8.8-9.3Zm0,0" fill="#d6e8f7"/>
        </g>
      </g>
    </g>
    <g id="Group_226" data-name="Group 226">
      <g id="Group_225" data-name="Group 225" transform="translate(127.758 194.583)">
        <g id="Group_224" data-name="Group 224">
          <path id="Path_126" data-name="Path 126" d="M1-9.9A10.372,10.372,0,0,0,11.4.473c4.113,0,8-2.668,8-6.16a8.149,8.149,0,0,1-3.168.648c-5.137,0-8.828-3.488-8.828-9.75,0-1.918.672-4.961,2.32-4.961.723,0,1,.6,1,1.32,0,1.547-1.348,2.371-1.348,4.738a4.27,4.27,0,0,0,4.613,4.414c2.895,0,5.039-1.82,5.039-4.789,0-4.137-4.09-6.234-8.156-6.234C5.113-20.3,1-15.637,1-9.9Zm0,0" fill="#d6e8f7"/>
        </g>
      </g>
    </g>
    <g id="Group_229" data-name="Group 229">
      <g id="Group_228" data-name="Group 228" transform="translate(148.156 194.583)">
        <g id="Group_227" data-name="Group 227">
          <path id="Path_127" data-name="Path 127" d="M1.672-19.375V-9.1c0,4.687.8,9.6,6.309,9.6,2.395,0,3.742-1.3,3.742-2.594-2.121,0-2.57-2.145-2.57-7.008V-19.375H11.6v-.477H9.152V-23.34H8.9A16.6,16.6,0,0,1,0-19.852v.477Zm0,0" fill="#d6e8f7"/>
        </g>
      </g>
    </g>
    <g id="Group_232" data-name="Group 232">
      <g id="Group_231" data-name="Group 231" transform="translate(159.252 194.583)">
        <g id="Group_230" data-name="Group 230">
          <path id="Path_128" data-name="Path 128" d="M12.344-1.922c0,1.3-.945,1.9-2.219,1.9C6.66-.023,3.441-4.016,1.57-7.73H1.32v5.887C4.164.125,6.609.473,10.1.473c4.012,0,8.254-2.242,8.254-6.281,0-7.133-10.375-6.762-10.375-11.672A2.384,2.384,0,0,1,10.6-19.75c2.844,0,5.438,3.988,6.387,6.957h.246V-20.3h-.246a3.376,3.376,0,0,1-2.047.449c-1.445,0-3.266-.449-5.859-.449C4.738-20.3,1-18.254,1-14.191,1-6.508,12.344-7.059,12.344-1.922Zm0,0" fill="#d6e8f7"/>
        </g>
      </g>
    </g>
    <g id="Group_235" data-name="Group 235" clip-path="url(#clip-path-4)">
      <g id="Group_234" data-name="Group 234" clip-path="url(#clip-path-5)">
        <g id="Group_233" data-name="Group 233" clip-path="url(#clip-path-5)">
          <path id="Path_129" data-name="Path 129" d="M136.91,79.84,112.539,73.23l2.813-5.641s10.984.77,17.363-1.258,10.047-5.547,9.223-7.9S122.02,65.34,120.262,65.1s-3.492-.34-3.492-.34L117.8,62.7a.391.391,0,0,0-.184-.543.408.408,0,0,0-.512.105s-.1-31.687-3.77-32.633-3.039,6.059-2.551,18.9,3.785,16.844,3.785,16.844c-.176.363-1.594,3.191-3.812,7.316,0,0-5.812-13.02-8.754-16.977s-7.07-9.625-8.473-9.148-1.672-.891.2,5.1c1.688,5.406,13.6,20.086,15.973,22.953-1.375,2.512-2.969,5.383-4.711,8.359,0,0-4.555-4.93-6.406-9.43S91.535,53.2,86.531,52.07,93.75,75.781,96.785,79.988a22.181,22.181,0,0,0,6.418,6c-1.617,2.691-3.324,5.441-5.062,8.094-.73-.98-6.074-8.391-8.77-14.645-2.891-6.711-5.465-17.047-9.336-15.219s9.184,22.6,11.4,25.336a57.9,57.9,0,0,1,4.707,7.473c-.078.1-.133.2-.215.316-1.176,1.676-2.344,3.309-3.5,4.855L85.4,93.188c-1.848-2.926-6.687-19.648-9.488-17.117s2.785,9.07,4.441,14.063c1.559,4.762,9.848,13.2,10.625,13.992-7.723,10.047-14.41,16.777-13.2,17.891,1.461,1.34,3.8-1.148,4.043-1.5l0-.02,6.434-8.5,6.066-7.875c4.4,2.559,26.789,15.375,29,12.266,2.477-3.461-7.016-5.867-13.6-7.426S95.3,102.828,95.3,102.828l5.363-6.977,6.9,5.141s20.223,6.484,22.211,1.984-10.32-4.262-15.238-4.41c-3.8-.125-9.723-3.406-12.223-4.887l3.172-6.367a58.959,58.959,0,0,0,10.059,3.949c8.148,2.438,17.316,3.891,18.2.664s-12.719-3.27-17.082-4.008a91.686,91.686,0,0,1-10.2-2.609l4.738-9.52c3.563,2.055,14.57,8.094,19.465,7.461C136.641,82.48,138.172,81.352,136.91,79.84Zm0,0" fill="#d6e8f7"/>
        </g>
      </g>
    </g>
    <g id="Group_236" data-name="Group 236" clip-path="url(#clip-path-7)">
      <path id="Path_133" data-name="Path 133" d="M177.941,19.8a11.182,11.182,0,1,0,11.18,11.184A11.195,11.195,0,0,0,177.941,19.8Zm6.281,12.266h-5.2v5.2a1.082,1.082,0,0,1-2.164,0v-5.2h-5.2a1.082,1.082,0,0,1,0-2.164h5.2V24.7a1.082,1.082,0,0,1,2.164,0v5.2h5.2a1.082,1.082,0,0,1,0,2.164Zm0,0" fill="#d6e8f7"/>
    </g>
  </g>
</svg>
