<svg xmlns="http://www.w3.org/2000/svg" xmlns:xlink="http://www.w3.org/1999/xlink" width="207.262" height="229.848" viewBox="0 0 207.262 229.848">
  <defs>
    <clipPath id="clip-path">
      <path id="Path_78" data-name="Path 78" d="M.367.855H207.629V230.7H.367Zm0,0"/>
    </clipPath>
    <clipPath id="clip-path-2">
      <path id="Path_77" data-name="Path 77" d="M15.332.855H192.664A14.966,14.966,0,0,1,207.629,15.82V215.738A14.966,14.966,0,0,1,192.664,230.7H15.332A14.964,14.964,0,0,1,.367,215.738V15.82A14.964,14.964,0,0,1,15.332.855Zm0,0"/>
    </clipPath>
    <clipPath id="clip-path-3">
      <path id="Path_86" data-name="Path 86" d="M166.758,22.25h21.7v21.7h-21.7Zm0,0"/>
    </clipPath>
    <clipPath id="clip-path-4">
      <path id="Path_88" data-name="Path 88" d="M66.926,35.012H141v75.566H66.926Zm0,0"/>
    </clipPath>
  </defs>
  <g id="MyWork" transform="translate(-0.367 -0.855)">
    <g id="Group_141" data-name="Group 141" clip-path="url(#clip-path)">
      <g id="Group_140" data-name="Group 140" clip-path="url(#clip-path-2)">
        <path id="Path_76" data-name="Path 76" d="M.367.855H207.629V230.7H.367Zm0,0" fill="#caaacd"/>
      </g>
    </g>
    <g id="Group_144" data-name="Group 144">
      <g id="Group_143" data-name="Group 143" transform="translate(77.304 160.222)">
        <g id="Group_142" data-name="Group 142">
          <path id="Path_79" data-name="Path 79" d="M.625-.25V0H9.477V-.25C5.809-1.2,2.742-12.992,2.742-21.047v-5.461L11.348,0h2.219l6.086-25.984V-3.492c0,1.848-.449,2.945-1.621,3.242V0H29.25V-.25c-1.172-.3-1.617-1.395-1.617-3.242V-24.937c0-1.844.445-2.941,1.617-3.242v-.25h-9.6L15.66-11.4,10.125-28.43H.625v.25c1.172.3,1.621,1.4,1.621,3.242V-3.492C2.246-1.645,1.8-.547.625-.25Zm0,0" fill="#fdf3dd"/>
        </g>
      </g>
    </g>
    <g id="Group_147" data-name="Group 147">
      <g id="Group_146" data-name="Group 146" transform="translate(107.178 160.222)">
        <g id="Group_145" data-name="Group 145">
          <path id="Path_80" data-name="Path 80" d="M0-19.852v.25c2.07,0,2.719,1.4,3.242,3.02C5.484-9.676,6.434-6.684,8.2,0h6.586C14.141,1.7,11.4,2.844,8.828,2.844A4.973,4.973,0,0,1,4.465.949H4.238V7.309c.625,1.145,2.5,1.645,3.594,1.645,4.91,0,7.332-8.5,7.453-8.953C17.059-6.684,18-9.676,20.25-16.582c.523-1.621,1.121-3.02,3.242-3.02v-.25H14.863v.3h.574c4.063,0,1.422,11.77.047,17.48C14.438-6.035,13.117-9.227,11.8-14.914c-.426-1.793-.227-4.637,1.918-4.637v-.3Zm0,0" fill="#fdf3dd"/>
        </g>
      </g>
    </g>
    <g id="Group_150" data-name="Group 150">
      <g id="Group_149" data-name="Group 149" transform="translate(47.552 194.64)">
        <g id="Group_148" data-name="Group 148">
          <path id="Path_81" data-name="Path 81" d="M0-28.43v.25c1.246,0,2.344,4.141,3.016,6.781C5.137-13.043,6.285-8.355,8.4,0H16.66c1.219-4.887,2.145-8.5,3.117-12.344C20.723-8.5,21.645-4.887,22.867,0h8.254c2.121-8.355,3.27-13.043,5.387-21.4.676-2.641,1.773-6.781,3.02-6.781v-.25H29.4v.25c6.758,4.914,2.918,20.8,1.422,27.309C29.1-7.633,28.652-9.75,27.184-15.535c-.773-3.07-2.871-10.648-.2-12.645v-.25H14.465v.25c1.246,0,2.367,4.141,3.016,6.781.723,2.895,1.348,5.363,1.945,7.684C18.328-8.754,17.059-3.988,16.383-1c-1.719-6.758-2.191-8.754-3.664-14.539-.773-3.07-2.867-10.648-.2-12.645v-.25Zm0,0" fill="#fdf3dd"/>
        </g>
      </g>
    </g>
    <g id="Group_153" data-name="Group 153">
      <g id="Group_152" data-name="Group 152" transform="translate(87.076 194.64)">
        <g id="Group_151" data-name="Group 151">
          <path id="Path_82" data-name="Path 82" d="M11,.473c5.512,0,10.027-3.84,10.027-10.371s-4.488-10.4-10-10.4S1-16.434,1-9.9,5.484.473,11,.473ZM9.1-9.926c0-5.437-.2-9.824,1.895-9.824s1.9,4.387,1.9,9.824c0,5.488.2,9.875-1.9,9.875S9.1-4.437,9.1-9.926Zm0,0" fill="#fdf3dd"/>
        </g>
      </g>
    </g>
    <g id="Group_156" data-name="Group 156">
      <g id="Group_155" data-name="Group 155" transform="translate(109.094 194.64)">
        <g id="Group_154" data-name="Group 154">
          <path id="Path_83" data-name="Path 83" d="M.25-17.906c.621,0,1.672.949,1.672,3.293V-3.492C1.922-1.645,1.473-.547.3-.25V0H11.023V-.25C9.852-.547,9.4-1.645,9.4-3.492V-14.863A2.934,2.934,0,0,1,11.8-17.93a.526.526,0,0,1,.6.547c0,.9-.75,1.223-.75,2.7a4.005,4.005,0,0,0,4.242,4.238c2.566,0,4.262-1.8,4.262-4.613A5.074,5.074,0,0,0,14.789-20.3,5.892,5.892,0,0,0,9.4-16.781V-20.3h-.25a27.259,27.259,0,0,1-8.9,2.145Zm0,0" fill="#fdf3dd"/>
        </g>
      </g>
    </g>
    <g id="Group_159" data-name="Group 159">
      <g id="Group_158" data-name="Group 158" transform="translate(129.492 194.64)">
        <g id="Group_157" data-name="Group 157">
          <path id="Path_84" data-name="Path 84" d="M1.922-23.219V-3.492C1.922-1.645,1.473-.547.3-.25V0H11.023V-.25C9.852-.547,9.4-1.645,9.4-3.492V-9.926a1.98,1.98,0,0,1,.172.426c.9,2.691,2,4.461,2.5,5.836.8,2.191.723,2.84-.426,3.414V0h11V-.25c-1.273,0-2.2-1.7-4.09-6.258-1.324-3.191-2.77-6.734-3.543-8.8.324-.324.625-.648.949-.945C18.055-18.2,21.273-19.6,22.895-19.6v-.25H12.219v.25c3.191.5,3.391,3.043,1.348,5.238L9.4-9.926V-28.9h-.25a27.259,27.259,0,0,1-8.9,2.145v.25C.871-26.508,1.922-25.562,1.922-23.219Zm0,0" fill="#fdf3dd"/>
        </g>
      </g>
    </g>
    <g id="Group_160" data-name="Group 160" clip-path="url(#clip-path-3)">
      <path id="Path_85" data-name="Path 85" d="M177.457,22.25a10.7,10.7,0,1,0,10.7,10.7A10.708,10.708,0,0,0,177.457,22.25Zm6.008,11.734h-4.973v4.973a1.035,1.035,0,0,1-2.07,0V33.984h-4.977a1.035,1.035,0,0,1,0-2.07h4.977V26.938a1.035,1.035,0,0,1,2.07,0v4.977h4.973a1.035,1.035,0,0,1,0,2.07Zm0,0" fill="#fdf3dd"/>
    </g>
    <g id="Group_161" data-name="Group 161" clip-path="url(#clip-path-4)">
      <path id="Path_87" data-name="Path 87" d="M108.57,102.742Zm32.391-55.578-.02.035a2.015,2.015,0,0,1-.121.246c-.121.25-.262.5-.367.688-.125.23-.246.461-.371.688s-.246.457-.367.688c-.02.055-.336.668-.352.688,0-.02.352-.652.367-.687-.016.035-.281.563-.352.688-.086.176-.242.477-.348.688-.09.156-.246.477-.352.688-.07.141-.281.527-.371.688-.105.191-.262.492-.352.684-.137.266-.227.426-.367.688l-.352.688c-.051.09-.3.563-.352.688-.016.055-.367.688-.367.688,0-.02.3-.582.352-.687.105-.211.246-.477.352-.687s.227-.457.352-.687l.348-.687-.734,1.375c-.125.23-.23.457-.352.688-.07.141-.3.563-.371.688-.016.035-.035.07-.051.105-.141.176-.3.387-.4.512l-.477.6-.473.6c-.105.125-.352.441-.473.6-.125.141-.371.457-.492.6l-.477.6c-.191.23-.3.371-.488.6-.125.156-.352.438-.477.6-.086.105-.422.512-.492.6-.07.07-.418.512-.488.6-.105.141-.387.508-.477.6-.051.07-.4.512-.473.6s-.437.531-.492.6c-.156.211-.332.422-.473.6l-.527.652c-.07.07-.4.512-.473.6-.09.105-.422.512-.492.6-.141.18-.316.391-.492.6-.105.141-.367.457-.492.6-.086.125-.4.512-.473.6-.035.055-.441.566-.477.6-.156.191-.367.438-.488.6-.055.07-.492.6-.492.6s.457-.562.473-.6c-.176.211-.332.406-.492.6-.086.125-.4.512-.473.6-.09.121-.352.457-.473.6-.141.176-.352.422-.492.6s-.352.441-.477.6c-.07.086-.437.527-.488.6s-.477.6-.477.6.457-.562.492-.6c-.141.176-.332.422-.473.6-.09.105-.422.512-.492.6-.105.141-.352.422-.492.6-.156.2-.332.406-.492.6-.086.125-.4.512-.473.6-.105.141-.336.422-.473.6-.105.141-.371.457-.492.6-.09.105-.406.527-.477.6-.176.211-.352.438-.488.6-.16.191-.316.387-.492.582l1.227-.742.652-.4c.438-.266.875-.531,1.316-.793.141-.09.453-.285.648-.406.051-.035.613-.352.668-.387.211-.125.438-.246.664-.391.176-.105.457-.262.668-.387.176-.105.477-.281.652-.4.207-.125.453-.266.664-.391.141-.086.563-.332.652-.4.207-.141.438-.266.648-.406.191-.105.422-.266.648-.406.09-.051.563-.332.668-.387.121-.07.563-.336.648-.406.23-.141.422-.262.648-.4.23-.125.457-.266.668-.391.16-.086.582-.332.668-.387-.051.035-.648.387-.648.406.016-.02.613-.352.664-.387-.051.035-.648.387-.648.4.02,0,.582-.332.668-.387.211-.121.457-.262.668-.387l.492-.3.07-.035.035.07.438.848c-.105-.23-.23-.477-.332-.707-.02-.016-.035-.086-.09-.156l-.051-.09-.09.055c-.211.121-.508.3-.527.3.02-.016.336-.191.512-.316l.105-.051.051.105a.865.865,0,0,1,.07.141c.105.191.262.492.352.688.07.156.281.582.332.7.035.09.336.688.336.7,0,0-.336-.648-.352-.684.105.211.227.473.352.7.086.176.281.527.352.688.121.246.242.477.348.688.055.105.281.527.352.688.02.035.336.7.336.7s-.336-.633-.352-.687c.035.07.3.6.332.707.07.121.3.578.352.684.035.055.332.652.352.688s.035.055.035.09l.035.086-.07.055c-.191.141-.4.281-.562.387-.07.055-.633.441-.633.441s.582-.422.617-.457c-.211.141-.422.3-.633.438-.125.09-.527.391-.613.461-.176.121-.406.3-.617.457-.105.07-.527.352-.629.441-.035.035-.617.438-.617.457l.633-.441c-.176.125-.437.316-.613.457-.176.125-.477.336-.652.441-.207.141-.4.3-.613.457-.211.141-.422.3-.633.441-.176.125-.453.336-.613.457l-.648.441c-.16.125-.512.371-.613.457l-.617.457c-.141.109-.437.32-.613.461-.125.086-.492.352-.648.438-.176.125-.457.336-.617.461-.246.176-.4.281-.629.438-.02,0-.582.426-.617.461-.07.051-.633.438-.633.438.02-.016.582-.422.617-.457s.6-.441.613-.457c-.016.016-.562.387-.648.441-.125.086-.512.352-.633.438-.211.16-.422.3-.613.461-.141.086-.527.367-.652.438-.191.141-.473.336-.613.461-.156.121-.422.3-.613.457-.16.121-.457.316-.613.457-.105.07-.387.266-.547.371.211-.09.6-.23.6-.23s-.492.211-.668.266c.16-.055.582-.211.688-.266.191-.07.508-.211.7-.3.16-.055.6-.23.723-.285.227-.086.543-.227.7-.281l.7-.281c.055-.016.668-.281.719-.3.105-.051.582-.227.7-.281.055-.016.719-.281.719-.281-.035.02-.664.281-.7.281-.02,0-.6.246-.7.281-.09.035-.7.285-.7.3.035-.016.613-.23.719-.281.16-.055.512-.2.723-.281.242-.09.488-.2.719-.281s.473-.2.7-.3c.176-.07.613-.246.7-.3l-.719.281c.02,0,.648-.262.7-.281-.055.02-.719.281-.719.281.016,0,.613-.246.7-.281.23-.086.477-.191.7-.281l1.457-.562c-.035.016-.7.281-.7.281.09-.035.617-.23.723-.281.105-.035.629-.266.7-.281l.723-.281-.7.281c.156-.055.543-.211.719-.281.211-.09.492-.2.7-.285l.527-.211h1.016l1.527-.016c.527,0,1.039.016,1.563.016h1.055l.016.07c.035.23.07.566.07.566,0-.02-.051-.336-.086-.566l-.02-.07h0v.055c.02.191.07.477.09.582,0,.016.121.723.121.758,0-.055-.105-.758-.105-.777,0,.02.105.652.125.758.035.176.105.668.121.758,0-.055-.105-.758-.105-.773,0,.016.105.648.125.754.035.18.086.531.121.758,0,.055.105.707.105.777.02.086.105.758.105.773l-.035-.7c.02.141.09.6.105.773.02.141.105.652.125.758.035.211.07.477.121.723l.02.07-.07.035-.035.02c-.2.086-.492.246-.687.332s-.523.246-.7.336c-.16.07-.547.266-.687.336-.191.086-.559.262-.7.332-.105.055-.7.316-.7.336.016,0,.6-.3.684-.336.055-.035.648-.316.684-.332-.191.086-.508.246-.7.332-.23.105-.457.23-.687.336s-.473.23-.7.336c-.16.086-.547.262-.687.332-.246.125-.473.246-.684.336l-.684.336c-.125.07-.512.262-.684.332-.09.035-.633.3-.7.336-.09.035-.617.281-.7.336-.105.051-.422.211-.578.3a.612.612,0,0,1-.105.035c-.246.07-.547.18-.738.23-.105.035-.613.2-.738.23s-.633.211-.719.246c-.211.07-.473.156-.719.246-.16.051-.547.2-.723.246-.242.07-.488.16-.734.23-.246.086-.492.156-.723.246-.141.035-.629.191-.734.227-.266.09-.512.16-.738.23.016,0,.668-.23.719-.246.16-.055.613-.2.738-.23.227-.07.543-.191.719-.246l.719-.246-.734.23-.738.227c-.176.055-.562.2-.719.246-.266.09-.512.176-.723.25-.227.07-.453.156-.719.246s-.508.176-.719.246c-.09.035-.613.211-.719.246-.266.086-.477.16-.738.23-.055.016-.719.246-.719.246-.266.086-.492.156-.738.227-.211.07-.527.176-.7.23l-.016.016c-.09.055-.652.406-.668.406,0,0,.633-.406.633-.422-.2.125-.457.281-.668.406-.16.105-.492.332-.648.422-.23.141-.457.3-.633.422-.125.09-.477.316-.633.422-.016.02-.648.406-.668.426,0,0,.6-.406.652-.426-.055.035-.562.355-.668.406-.16.105-.492.336-.648.422-.23.141-.457.3-.633.426-.07.035-.562.367-.633.422-.16.105-.543.332-.668.422-.211.125-.422.266-.668.422-.141.09-.508.316-.664.406-.141.086-.527.352-.633.422-.055.035-.09.055-.141.09-.105.176-.211.367-.3.492l-.4.668.668-1.2.121-.09-.121.07-.7,1.2-.367.668c-.09.16-.266.457-.371.672-.07.121-.316.527-.387.668-.121.227-.242.457-.367.668-.105.176-.281.492-.387.672-.121.227-.246.438-.367.668s-.246.441-.367.668-.266.461-.387.672l-.793,1.336c.125-.211.266-.457.371-.668.051-.09.367-.668.367-.668s-.035.07-.086.156l-.668,1.164h-3.352l-.105-.477c-.02-.086-.16-.738-.176-.758,0,.02.141.723.156.777-.035-.16-.121-.531-.176-.758l-.176-.758c-.051-.246-.105-.492-.176-.758l-.105-.547-.719-.668c.191.176.387.332.578.512a1.861,1.861,0,0,1,.16.141c.051.227.121.508.121.527,0-.02-.07-.316-.105-.527-.086-.07-.141-.141-.176-.16l-.016-.016-1.105-1.008-.035-.016c-.07-.055-.562-.512-.582-.512.02.02.547.492.582.527-.09-.086-.422-.367-.582-.508s-.367-.336-.578-.512c-.035-.02-.527-.492-.578-.527-.141-.125-.387-.371-.578-.531-.105-.086-.457-.4-.582-.508-.141-.125-.437-.426-.578-.531l-.578-.508c-.2-.18-.387-.336-.582-.512L93,100.926c-.035-.035-.562-.512-.578-.527.016.016.543.477.578.512-.016-.02-.527-.5-.562-.531.07.055.441.391.582.512.191.176.367.336.578.512.035.035.508.477.578.527.141.125.441.387.582.512.211.176.4.352.578.512l.051.051-2.367-1.973a.2.2,0,0,1-.07-.07c-.211-.176-.387-.352-.582-.512-.07-.07-.488-.437-.578-.508-.191-.176-.387-.355-.562-.531-.191-.176-.387-.332-.578-.508l-.07-.07c-.176-.07-.613-.215-.633-.215-.246-.07-.492-.156-.738-.227-.172-.055-.629-.211-.734-.23.051.02.719.246.734.246-.016,0-.664-.211-.734-.227.051.016.719.246.734.246-.016,0-.629-.2-.734-.23-.23-.07-.492-.156-.738-.227-.492-.176-.984-.336-1.477-.512.055.016.723.227.738.227-.016,0-.633-.211-.738-.246-.086-.035-.594-.211-.734-.246-.211-.07-.512-.156-.738-.227-.141-.055-.613-.215-.738-.25-.051-.016-.7-.246-.738-.246-.086-.035-.719-.227-.734-.227.016,0,.633.211.734.246s.633.211.738.246c-.246-.09-.473-.16-.738-.23-.137-.051-.613-.211-.734-.246-.211-.07-.492-.156-.738-.246-.262-.086-.457-.16-.738-.246-.156-.055-.387-.125-.578-.176a.707.707,0,0,1-.125-.105c-.172-.16-.4-.371-.578-.527-.121-.109-.473-.426-.578-.512-.176-.141-.371-.336-.578-.512-.125-.105-.441-.387-.582-.512-.086-.07-.508-.477-.578-.527-.211-.176-.4-.352-.578-.512l-.582-.512L75.2,90.852c-.035-.035-.562-.512-.578-.527.016.016.543.473.578.508-.051-.035-.543-.508-.578-.527.016.02.563.492.578.512-.016-.02-.492-.457-.578-.527-.125-.109-.437-.406-.578-.531l-.582-.512c-.176-.141-.457-.4-.578-.508-.07-.07-.562-.5-.578-.512-.105-.105-.406-.387-.582-.527-.105-.105-.418-.391-.578-.531-.191-.176-.387-.352-.578-.527-.105-.105-.492-.422-.582-.512-.156-.141-.3-.262-.453-.4l-.02-.02V83.965c0-.141.02-.672.02-.777,0-.086.016-.773.016-.773v.773c0-.176.02-.6.02-.773V80.09c0-.074,0-.266.016-.441v-.07l.055.016c.156.035.281.07.313.07.266.055.527.105.758.16.246.051.492.105.754.156l1.492.32,1.508.352c.105.016.23.051.371.086h.016c.125.09.266.176.336.23-.02-.02-.16-.105-.336-.211l-.352-.07s.176.035.352.086a3.621,3.621,0,0,1,.336.23c.211.141.438.3.648.422.035.035.633.406.648.406-.016,0-.562-.371-.648-.422-.051-.035-.6-.387-.648-.422.191.121.438.281.648.4.121.09.543.371.648.422.07.055.563.371.652.426.156.105.523.332.648.4.07.055.563.355.648.406.16.105.527.352.648.422.07.055.563.371.652.426.121.07.559.352.648.4.211.141.473.316.648.426.09.051.547.352.652.422.121.07.559.352.648.4l.648.406c.105.07.508.316.648.406.2.121.457.3.652.422.086.055.191.125.316.2-.09-.105-.16-.2-.266-.336-.121-.16-.352-.422-.492-.6-.086-.125-.4-.531-.473-.617s-.4-.512-.473-.617c-.09-.125-.422-.512-.492-.6l-.492-.6c-.105-.141-.352-.422-.492-.6-.035-.051-.437-.562-.473-.617-.07-.086-.387-.492-.477-.617-.07-.086-.418-.527-.488-.6-.16-.191-.316-.387-.492-.6-.07-.07-.406-.492-.492-.6s-.4-.527-.473-.613c-.125-.16-.422-.531-.477-.617.035.035.477.582.492.6,0,0-.422-.547-.473-.617-.125-.156-.352-.437-.477-.617-.141-.156-.348-.437-.488-.6-.09-.121-.406-.512-.477-.617-.156-.176-.367-.457-.492-.6-.086-.105-.383-.457-.488-.6-.125-.141-.266-.336-.387-.5a.91.91,0,0,0-.055-.121c-.105-.23-.211-.477-.316-.707-.105-.246-.191-.473-.3-.719-.105-.23-.211-.477-.316-.707-.105-.246-.191-.477-.3-.723-.09-.191-.23-.508-.316-.7s-.23-.527-.3-.723c-.07-.16-.262-.582-.316-.7-.035-.09-.262-.6-.312-.707-.055-.121-.266-.617-.3-.723-.105-.246-.227-.508-.316-.7-.051-.125-.227-.527-.316-.7-.086-.2-.211-.512-.3-.723-.086-.2-.227-.512-.316-.707-.105-.262-.191-.457-.3-.723-.105-.227-.211-.473-.316-.7-.07-.176-.23-.562-.3-.723l-.316-.7-.312-.707-.316-.7-.6-1.445.316.707c.035.086.262.6.316.7.051.125.262.617.3.723.105.23.23.512.316.7s.211.461.316.707c.051.105.246.582.3.723.07.176.246.543.316.7.105.246.23.492.316.7l.316.707c-.105-.246-.211-.477-.3-.723-.105-.246-.211-.477-.316-.707-.105-.246-.2-.473-.3-.719-.105-.23-.211-.461-.316-.707-.105-.227-.211-.457-.316-.7-.051-.141-.242-.617-.3-.723-.016-.055-.3-.7-.3-.723-.035-.09-.316-.687-.316-.7,0,.016.262.613.3.723.02.051.3.7.3.719-.07-.141-.246-.543-.316-.7-.055-.141-.246-.6-.3-.723-.035-.07-.262-.633-.3-.723-.09-.191-.246-.562-.316-.7-.035-.09-.3-.687-.316-.7.02.035.3.7.3.719,0-.016-.3-.684-.316-.7l-.6-1.445c-.105-.246-.2-.477-.3-.723l-.242-.543.121.105.016-.035.6-.723.492-.6c.07-.086.387-.473.492-.6.035-.035.508-.582.508-.6-.016.016-.457.563-.492.6.035-.051.492-.562.512-.582-.02.02-.477.582-.492.6.016-.02.438-.512.508-.6.105-.121.387-.457.512-.582.141-.176.277-.352.418-.508l.02-.035.035.016.086.055c.176.141.457.352.617.473.176.145.457.355.613.461l-.613-.477s.578.441.613.457c.07.055.578.441.613.477.23.16.422.316.617.457.207.16.4.3.613.457s.4.3.613.461l.984.738.016.02.02.016.156.266c.035.051.371.668.371.688,0-.02-.336-.582-.387-.672-.02-.051-.09-.156-.16-.281v-.016h-.016c-.16-.125-.352-.266-.352-.266-.02-.02.176.141.352.281h.016v.02a2.664,2.664,0,0,1,.16.3s-.09-.141-.176-.281v-.016h-.02c-.176-.125-.367-.285-.352-.266a2.8,2.8,0,0,1,.336.266c.07.141.141.262.156.3.125.23.266.441.387.672.055.07.371.648.387.668-.016-.02-.352-.633-.367-.687.07.105.281.492.383.668s.266.441.387.672c.02.035.352.633.371.688.051.086.316.563.367.688.07.121.332.578.387.668.121.23.262.441.387.668s.246.461.367.688c.055.09.316.582.371.688-.02-.035-.387-.668-.387-.668,0,.016.316.578.367.688.125.227.246.457.367.684l.773,1.34c.09.16.266.457.387.668.07.145.3.531.367.688.105.2.281.5.387.672.07.105.336.6.371.688.121.211.281.492.387.668l.383.668c.105.2.246.441.387.672.09.156.281.492.387.668.07.141.141.266.211.406a2.4,2.4,0,0,0,.23.191c.016.02.543.461.578.5.07.051.578.508.578.508s-.508-.422-.578-.492c-.125-.105-.527-.441-.578-.492.035.035.578.512.578.512-.02-.02-.578-.477-.6-.5.02.02.543.477.578.512.387.336.793.652,1.176.988.16.141.477.4.582.492.07.07.578.477.578.492,0,0-.562-.492-.578-.512.105.09.473.391.578.5.16.141.438.387.578.508.23.2.352.3.582.5.156.121.422.367.578.512.105.086.492.422.578.492.211.176.387.316.582.492l.227.211L89,75.332c.016.016.086.2.156.352l.016.02A3.686,3.686,0,0,0,89,75.313c0,.02.105.215.191.406l.016.02a3.524,3.524,0,0,0-.191-.441c-.086-.2-.227-.512-.316-.723l-.648-1.391-.316-.707c-.07-.141-.227-.508-.316-.7-.035-.07-.281-.652-.316-.723-.035-.105-.262-.582-.316-.723-.051-.121-.281-.6-.316-.7-.035-.07-.277-.6-.312-.7-.07-.16-.266-.6-.316-.723-.035-.105-.266-.582-.316-.723-.055-.125-.281-.6-.316-.707-.035-.086-.281-.6-.316-.7-.09-.211-.227-.512-.316-.723s-.211-.492-.316-.723-.211-.457-.316-.7c-.105-.23-.211-.457-.316-.707-.105-.227-.211-.473-.316-.719-.1-.23-.207-.477-.312-.707-.02-.051-.316-.7-.316-.723,0,.02.281.6.316.707.07.156.277.633.313.7-.016-.051-.3-.7-.312-.723-.105-.227-.211-.457-.316-.7-.035-.09-.316-.687-.316-.707.016.02.3.672.316.723-.035-.07-.246-.547-.316-.7-.035-.09-.316-.687-.316-.7,0,.016.3.668.316.719-.02-.051-.281-.6-.316-.7-.105-.23-.211-.477-.316-.723-.105-.227-.211-.477-.316-.723-.035-.051-.316-.687-.316-.7-.035-.105-.3-.7-.316-.723,0,.02.281.6.316.7.09.176.281.6.316.707.035.086.316.688.316.7,0-.016-.3-.668-.316-.723.02.055.281.6.316.707-.016-.055-.3-.707-.316-.723-.105-.23-.211-.461-.316-.707-.035-.086-.316-.687-.316-.7,0,.016.3.668.316.723-.07-.141-.227-.492-.316-.707l-.316-.7c-.07-.141-.227-.492-.312-.7-.02-.02-.316-.707-.316-.723,0,0,.316.668.316.7-.035-.086-.266-.6-.316-.723-.105-.227-.211-.457-.316-.7-.105-.23-.211-.477-.316-.723-.105-.23-.211-.477-.316-.7-.105-.246-.211-.477-.316-.723-.086-.2-.227-.512-.316-.707-.051-.121-.262-.613-.316-.719-.105-.23-.246-.512-.316-.707-.105-.227-.211-.477-.312-.7s-.211-.477-.316-.707-.211-.473-.316-.7c-.055-.125-.246-.547-.316-.7,0-.02-.035-.07-.09-.2l.125.2v.016c.051.125.086.2.086.176a1.585,1.585,0,0,0-.086-.176V40.066H76.5l-.105.02v.051h.227c.105,0,.633-.016.773-.016h1.543c.23,0,.6-.02.773-.02l.773-.016c.211,0,.492-.02.773-.02h.77c.141,0,.652-.016.773-.016.176,0,.543-.02.773-.02h.281l.016.02c.141.121.3.262.406.352.191.156.387.332.578.492.191.176.387.352.578.512.141.121.457.387.582.492.176.141.453.406.578.512.105.086.457.4.578.512.2.176.387.352.578.508.105.09.492.426.582.5s.473.4.578.492.508.441.578.512c.07.051.492.438.582.508s.367.3.508.426l.02.016v.02a.789.789,0,0,1,.035.105c.1.246.207.527.3.723.035.07.262.633.3.719.07.16.246.582.3.707l.3.7c.09.2.246.582.3.707.035.086.3.684.3.7,0,0,.262.633.3.723.07.191.211.527.3.723.105.227.191.477.3.7s.2.477.3.707c.055.121.246.633.3.719.105.25.211.512.3.707.105.227.2.477.3.7l.3.707c.035.105.246.578.3.7s.246.617.3.723c.07.176.246.633.3.723-.016-.055-.3-.687-.3-.707,0,0,.246.637.3.723.07.2.2.492.3.723.086.2.211.512.3.7.07.18.23.582.3.723.09.211.23.547.3.707l.3.7c.09.211.2.457.3.707.07.141.227.543.3.7.09.191.211.527.3.723.125.262.2.441.3.7.105.246.191.492.3.723l.336.7c.086.18.281.617.332.707-.016-.055-.332-.672-.332-.687,0,.016.3.633.332.7.055.105.262.566.332.707l.336.688c.035.086.332.668.332.684,0-.016-.316-.684-.332-.7.051.09.281.563.332.688.105.23.23.477.336.7.121.23.227.461.332.688.07.16.262.563.332.707.105.211.266.527.336.684.035.07.3.617.332.688.09.2.266.566.336.707.1.227.227.473.332.7.051.105.262.563.332.7.055.105.3.6.336.688s.332.672.332.688c0-.016-.3-.633-.332-.7.086.176.246.492.332.688.02.051.07.156.125.262,0-.141.016-.281.016-.437.02-.285.035-.531.035-.777.02-.266.035-.512.035-.773.016-.266.035-.531.035-.777,0-.051.016-.758.016-.773,0,.016-.035.668-.035.773,0,.16-.031.742-.031.777,0,.051-.035.758-.035.773,0-.016.016-.668.016-.773,0-.246.02-.531.02-.777l.086-1.566c0-.141.035-.582.035-.773.016-.25.035-.531.035-.777.016-.266.016-.512.016-.773,0-.246.02-.512.02-.777.016-.227.035-.562.035-.773.016-.266.016-.512.016-.777.02-.211.035-.578.035-.773s.02-.582.02-.773c.016-.2.035-.637.035-.777,0-.086.035-.668.035-.773,0-.141.016-.672.016-.777.02-.262.035-.562.035-.773,0-.09.035-.687.035-.773,0-.07.02-.758.02-.777,0,.02-.035.723-.035.777,0-.109.016-.582.016-.777s.02-.527.02-.773c0-.125.035-.637.035-.777,0-.262.016-.508.016-.773,0-.055.035-.758.035-.777,0,.02-.016.723-.016.777,0-.035.035-.652.035-.777.016-.156.035-.6.035-.773,0-.141.016-.652.016-.773,0-.09.02-.672.02-.777.016-.176.035-.633.035-.773,0-.07.035-.707.035-.777,0-.191.016-.613.016-.773,0-.266.02-.512.02-.773,0-.215.016-.5.016-.777,0-.086.035-.652.035-.773,0-.141.02-.652.02-.777.016-.262.016-.508.016-.773.02-.266.035-.527.035-.777,0-.086.035-.773.035-.773,0,.02-.016.738-.016.773,0-.141.035-.6.035-.773,0-.211.016-.547.016-.773.02-.25.035-.531.035-.777.02-.281.035-.492.035-.773,0-.246.02-.527.02-.777.016-.246.035-.527.035-.773,0-.266.016-.512.016-.773.02-.16.035-.637.035-.777a2.054,2.054,0,0,1,.02-.336v-.016l.016-.02c.09-.141.2-.281.246-.367.141-.211.3-.422.438-.637s.281-.422.441-.633c.07-.105.352-.492.438-.633l.457-.637c-.035.035-.437.637-.437.637s.383-.547.453-.637c.105-.141.316-.437.457-.633.09-.141.336-.477.441-.633.086-.105.383-.547.453-.637.055-.086.422-.613.441-.633,0,0-.422.6-.457.633-.105.141-.352.5-.437.637-.176.246-.3.4-.457.633-.105.141-.352.477-.457.633l.438-.633c.16-.23.3-.406.457-.633.141-.2.3-.426.438-.637.16-.211.3-.422.457-.633.141-.211.3-.422.441-.633s.3-.426.457-.637l.035-.051h.051c.262.016.508.016.773.035s.527.035.77.051c.266.02.527.035.773.055.141,0,.648.035.773.035.07,0,.7.035.773.035.227.016.594.035.77.051.23.02.512.035.773.055a.731.731,0,0,1,.176.016h.07v.074c.02.191.055.457.07.6.02.07.09.738.09.758.016.105.086.773.086.773,0-.016-.086-.723-.086-.758,0,.07.07.672.086.777l.191,1.531.09.758c.035.23.07.492.086.758.02.156.07.582.09.758.016.211.051.563.086.773.035.3.055.477.09.758.035.266.051.512.086.773.02.09.09.758.09.777,0-.035-.09-.742-.09-.758,0,.016.07.758.09.773,0-.016-.09-.738-.09-.758,0,.02.07.742.09.777l.016.086v.035l-.281,1.41c-.035.2-.105.492-.156.758-.02.105-.141.617-.176.758-.055.246-.105.512-.16.758s-.1.512-.156.758c-.035.121-.141.668-.176.758-.051.262-.105.547-.156.758l-.16.758c-.016.121-.121.578-.156.754-.02.109-.16.672-.176.758s-.141.672-.176.758c-.02.07-.16.758-.16.758-.035.16-.121.582-.176.758-.035.211-.1.547-.156.758-.051.266-.105.492-.176.758-.051.23-.105.512-.156.758s-.105.512-.176.758c-.055.246-.105.512-.176.758-.035.141-.125.633-.16.758-.016.086-.121.648-.156.754-.035.18-.141.637-.176.758-.02.055-.16.723-.176.758-.016.09-.141.742-.156.758,0-.016.156-.723.172-.758-.016.055-.121.617-.156.758-.035.2-.105.527-.156.758-.02.125-.055.3-.09.492a1.2,1.2,0,0,1-.016.246c0,.055-.055.723-.055.777-.016.191-.035.527-.051.773,0,.141-.02.6-.035.777-.02.246-.035.527-.055.773,0-.141.035-.652.035-.773.02-.266.02-.5.035-.777-.035.512-.07,1.039-.105,1.57-.016.246-.016.508-.035.773-.016.16-.035.633-.051.773,0,.145-.02.3-.02.441.055.105.09.2.125.266.086.176.211.477.316.7.086.2.227.5.313.707a.26.26,0,0,1,.035.086c.09-.105.16-.191.23-.262.176-.23.3-.371.473-.6.07-.086.441-.527.512-.6.156-.2.332-.406.508-.6.051-.07.422-.512.508-.6.105-.121.406-.512.477-.6l.473-.6a.273.273,0,0,0,.051-.07c.09-.145.23-.426.316-.582s.3-.512.387-.672c.07-.141.3-.543.371-.668.121-.211.3-.512.383-.668.07-.125.3-.531.387-.672.105-.191.266-.473.371-.668s.281-.492.387-.668c.051-.09.332-.617.367-.672.051-.086.387-.668.387-.668,0,.016-.352.633-.371.668,0-.016.352-.617.387-.668.055-.105.316-.582.371-.668.051-.109.3-.547.367-.672.035-.07.367-.633.387-.668.051-.09.367-.672.367-.672s-.367.637-.387.672c.125-.23.246-.441.371-.672.07-.121.332-.578.387-.668.105-.176.332-.582.383-.668-.031.051-.367.668-.367.668s.367-.633.387-.668c.07-.141.316-.566.367-.672.035-.086.371-.668.371-.668l-.387.668c.07-.121.281-.527.367-.668.105-.2.281-.492.387-.668.125-.23.246-.441.367-.672s.266-.457.387-.668c.105-.2.266-.492.371-.668.07-.125.332-.582.387-.672.121-.211.281-.512.367-.668.121-.23.246-.457.367-.672.055-.105.281-.527.371-.668.121-.191.262-.477.387-.668.051-.105.332-.617.367-.672.051-.086.387-.668.387-.668l-.371.668c.09-.156.281-.508.387-.668.105-.2.266-.492.371-.668.141-.266.246-.426.387-.672.105-.176.262-.492.367-.668.07-.125.332-.582.387-.668s.332-.582.387-.672c.086-.156.3-.562.367-.668l.367-.668c.055-.09.3-.566.371-.672.121-.227.262-.457.387-.668.086-.141.191-.371.3-.547l.02-.055.051-.016c.055-.02.105-.02.16-.035.242-.035.559-.09.77-.125.281-.051.527-.086.773-.121.105-.02.648-.105.773-.125.141-.016.648-.121.754-.141.246-.051.508-.086.754-.141.09-.016.633-.121.754-.141.16-.016.652-.105.773-.125.07-.016.7-.121.773-.121.227-.035.578-.105.754-.141l.477-.09.086-.016.035.086.105.266c.035.105.227.582.281.723.035.121.227.633.262.738.035.09.23.637.266.742.086.246.176.473.281.723.086.246.176.492.262.738.07.176.211.563.281.723.07.211.211.582.262.738.035.09.23.637.266.742.016.07.105.281.176.457ZM84.977,96.945l-.332-.105c.07.02.121.035.176.055C84.82,96.91,84.891,96.93,84.977,96.945Zm12.5,8.137-1.156-1.055.051.051c.055.035.543.512.563.531.07.051.563.508.578.508Zm20.559-26.457Zm-18.082,28.75ZM92.492,50.266l-.3-.7c.02.035.3.7.3.7,0,.02.262.668.3.723C92.754,50.918,92.527,50.355,92.492,50.266ZM79.309,63.777s-.316-.6-.371-.687c-.016-.035-.348-.6-.383-.668.051.086.332.613.367.684C78.973,63.2,79.309,63.777,79.309,63.777ZM68.23,58.844c.035.07.3.668.316.7-.02-.051-.3-.7-.3-.719-.035-.07-.3-.672-.316-.707C67.934,58.121,68.215,58.793,68.23,58.844Zm4.18,29.348c.191.176.387.336.578.512-.02-.02-.562-.531-.578-.531-.035-.035-.562-.492-.582-.508C71.848,87.664,72.375,88.156,72.41,88.191Zm34.336,17.754c.02-.016.387-.648.4-.668-.016.02-.367.652-.367.668.02-.016.367-.613.387-.668.246-.441.508-.9.754-1.355-.262.457-.527.9-.789,1.355C107.1,105.332,106.766,105.93,106.746,105.945Zm5.918-36.937c0,.055-.02.266-.02.457v.02c.055.121.09.211.09.211l-.09-.23a2.314,2.314,0,0,0,.02-.457c.016-.141.051-.687.051-.773.02-.266.02-.512.035-.777,0,.105-.051.723-.051.777C112.68,68.5,112.664,68.777,112.664,69.008Zm-.035.492v-.035s0-.016-.02-.016Zm2.316-14.988c.051-.266.105-.492.156-.758,0,.035-.176.758-.176.758l-.156.758S114.926,54.563,114.945,54.512Zm0,0" fill="rgba(232,202,206,0.74)"/>
    </g>
  </g>
</svg>
