<svg xmlns="http://www.w3.org/2000/svg" width="73.627" height="23.572" viewBox="0 0 73.627 23.572">
  <g id="Group_5" data-name="Group 5" transform="translate(-273.414 -343.907)">
    <g id="g836" transform="translate(266.796 331.452)">
      <path id="Shape" d="M48.023,22.659l.058,1.032a3.192,3.192,0,0,1,2.589-1.2q2.777,0,2.827,3.193v5.9h-2V25.8a1.845,1.845,0,0,0-.366-1.258,1.535,1.535,0,0,0-1.2-.408,1.923,1.923,0,0,0-1.8,1.1v6.352h-2V22.659h1.882ZM59.447,31.75a4.123,4.123,0,0,1-3.077-1.2,4.363,4.363,0,0,1-1.18-3.2v-.247a5.372,5.372,0,0,1,.514-2.388,3.922,3.922,0,0,1,1.442-1.638,3.806,3.806,0,0,1,2.071-.585,3.483,3.483,0,0,1,2.806,1.163,4.929,4.929,0,0,1,.991,3.292v.809H57.2a2.688,2.688,0,0,0,.736,1.749,2.2,2.2,0,0,0,1.623.643A2.7,2.7,0,0,0,61.8,29.036l1.076,1.032a3.6,3.6,0,0,1-1.426,1.241,4.45,4.45,0,0,1-2,.441ZM59.209,24.1a1.678,1.678,0,0,0-1.327.577,3,3,0,0,0-.645,1.609h3.805v-.149a2.445,2.445,0,0,0-.534-1.522A1.667,1.667,0,0,0,59.209,24.1Zm7.857-3.614v2.17h1.57v1.485h-1.57v4.983a1.1,1.1,0,0,0,.2.738.932.932,0,0,0,.719.227,3.065,3.065,0,0,0,.7-.083V31.56a4.889,4.889,0,0,1-1.315.19q-2.3,0-2.3-2.549V24.144H63.6V22.659h1.463v-2.17h2Zm5.219,11.1h-2V18.915h2Zm4.3,0h-2V22.66h2ZM74.462,20.341a1.066,1.066,0,0,1,.291-.767,1.1,1.1,0,0,1,.834-.305,1.116,1.116,0,0,1,.839.305,1.06,1.06,0,0,1,.3.767,1.035,1.035,0,0,1-.3.755,1.124,1.124,0,0,1-.839.3,1.109,1.109,0,0,1-.834-.3,1.041,1.041,0,0,1-.291-.755Zm5,11.244V24.144H78.1V22.659h1.356v-.817a3.073,3.073,0,0,1,.822-2.293,3.142,3.142,0,0,1,2.3-.808,4.6,4.6,0,0,1,1.118.148l-.049,1.567a3.919,3.919,0,0,0-.764-.066,1.285,1.285,0,0,0-1.43,1.476v.792h1.808v1.485H81.456v7.441h-2Zm8.374-2.871,1.808-6.055H91.77L88.237,32.939a2.875,2.875,0,0,1-2.762,2.252,3.564,3.564,0,0,1-.962-.149V33.491l.378.025a1.937,1.937,0,0,0,1.138-.276,1.833,1.833,0,0,0,.6-.928l.287-.767L83.8,22.66h2.153Z" transform="translate(-11.525 -1.833)" fill="#fff"/>
      <path id="path14" d="M23.659,20.635l-.009,0a.036.036,0,0,1-.014-.008.068.068,0,0,1-.017-.057l.475-2.905,2.225,2.229L24,20.876a.048.048,0,0,1-.02,0h-.009l-.012-.01a1.054,1.054,0,0,0-.3-.234Zm3.228-.177,2.379,2.383c.494.5.742.743.832,1.029a1.161,1.161,0,0,1,.033.128l-5.686-2.412-.009,0c-.023-.009-.049-.02-.049-.043s.027-.034.05-.044l.007,0Zm3.147,4.305a4.484,4.484,0,0,1-.767.877l-2.683,2.686-3.47-.724-.018,0c-.031,0-.063-.01-.063-.038a1.049,1.049,0,0,0-.4-.733.06.06,0,0,1-.006-.057.02.02,0,0,1,0-.009l.653-4.012,0-.014c0-.031.009-.066.037-.066a1.062,1.062,0,0,0,.712-.409.061.061,0,0,1,.017-.017.08.08,0,0,1,.063.009l5.924,2.509Zm-4.067,4.181-4.411,4.418.755-4.648v-.006a.092.092,0,0,1,0-.018c.006-.015.022-.021.037-.027l.007,0a1.136,1.136,0,0,0,.427-.318.094.094,0,0,1,.055-.037h.018l3.106.639ZM20.622,34.3l-.5.5-5.5-7.956-.006-.009a.054.054,0,0,1-.016-.037.041.041,0,0,1,.014-.026l.006-.008c.017-.025.031-.049.046-.076l.012-.022,0,0a.088.088,0,0,1,.031-.037.075.075,0,0,1,.045,0l6.09,1.258a.1.1,0,0,1,.047.02.045.045,0,0,1,.012.026,1.08,1.08,0,0,0,.631.722c.017.009.01.028,0,.048a.143.143,0,0,0-.009.028c-.077.467-.735,4.487-.912,5.572Zm-1.039,1.04a2.309,2.309,0,0,1-.827.633,1.226,1.226,0,0,1-.74,0c-.286-.091-.533-.338-1.028-.834l-5.521-5.529,1.442-2.24a.093.093,0,0,1,.025-.029.064.064,0,0,1,.056,0A1.492,1.492,0,0,0,14,27.288c.017-.006.033-.01.046,0a.111.111,0,0,1,.017.02l5.524,8.028Zm-8.648-6.262L9.669,27.807l2.5-1.068a.051.051,0,0,1,.02,0c.021,0,.033.021.044.04q.038.058.08.113l.008.01c.007.01,0,.021,0,.031l-1.381,2.147Zm-1.827-1.83-1.6-1.6c-.273-.273-.47-.471-.608-.641l4.872,1.012.018,0c.03,0,.063.01.063.039s-.036.045-.067.057l-.014.006Zm-2.49-3.071a1.233,1.233,0,0,1,.055-.3c.091-.286.338-.534.832-1.029l2.05-2.053q1.416,2.058,2.84,4.111c.017.022.035.047.016.065a1.706,1.706,0,0,0-.242.325.1.1,0,0,1-.031.038.034.034,0,0,1-.026,0h0L6.618,24.174Zm3.487-3.936,2.756-2.761c.26.114,1.2.513,2.046.869.638.271,1.22.516,1.4.6a.068.068,0,0,1,.043.033.063.063,0,0,1,0,.037,1.233,1.233,0,0,0,.321,1.124c.018.018,0,.045-.016.068l-.009.013-2.8,4.342a.085.085,0,0,1-.026.031.071.071,0,0,1-.053,0,1.394,1.394,0,0,0-.333-.045,1.834,1.834,0,0,0-.32.039h0a.041.041,0,0,1-.033,0,.129.129,0,0,1-.028-.031L10.1,20.238Zm3.314-3.319,3.569-3.574c.494-.495.742-.743,1.028-.833a1.226,1.226,0,0,1,.74,0c.286.09.533.338,1.028.833l.773.775-2.538,3.937a.1.1,0,0,1-.025.03.064.064,0,0,1-.055,0,1.286,1.286,0,0,0-1.179.227c-.017.017-.041.007-.062,0-.331-.144-2.91-1.236-3.279-1.392ZM21.1,14.66l2.344,2.347-.565,3.5v.009a.083.083,0,0,1,0,.023c-.006.012-.018.015-.031.018a1.123,1.123,0,0,0-.336.168l-.012.01a.039.039,0,0,1-.025.015.069.069,0,0,1-.026,0l-3.572-1.52-.007,0c-.023-.009-.05-.02-.05-.044a1.353,1.353,0,0,0-.19-.563c-.017-.028-.036-.058-.021-.087ZM18.682,19.95l3.348,1.42c.018.009.039.017.047.036a.065.065,0,0,1,0,.035.834.834,0,0,0-.018.162V21.7c0,.023-.024.033-.046.042l-.007,0c-.53.227-7.446,3.18-7.457,3.18a.04.04,0,0,1-.032-.01c-.018-.018,0-.044.017-.068l.009-.012,2.751-4.267,0-.007c.016-.026.034-.055.064-.055l.028,0a1.275,1.275,0,0,0,.174.017,1.243,1.243,0,0,0,1.037-.551.1.1,0,0,1,.021-.025.062.062,0,0,1,.06,0ZM14.848,25.6l7.539-3.22a.033.033,0,0,1,.021.01,1.021,1.021,0,0,0,.11.095l.017.01c.015.009.031.018.032.034a.059.059,0,0,1,0,.015l-.646,3.973,0,.016c0,.031-.009.066-.037.066a1.061,1.061,0,0,0-.843.521l0,0a.085.085,0,0,1-.031.035.069.069,0,0,1-.043,0l-6.012-1.242c-.006,0-.093-.319-.1-.32Z" transform="translate(0 0)" fill="#fff"/>
    </g>
  </g>
</svg>
