<svg xmlns="http://www.w3.org/2000/svg" xmlns:xlink="http://www.w3.org/1999/xlink" width="207.258" height="229.848" viewBox="0 0 207.258 229.848">
  <defs>
    <clipPath id="clip-path">
      <path id="Path_91" data-name="Path 91" d="M.516.8H207.773V230.645H.516Zm0,0"/>
    </clipPath>
    <clipPath id="clip-path-2">
      <path id="Path_90" data-name="Path 90" d="M15.48.8H192.813a14.963,14.963,0,0,1,14.961,14.965V215.684a14.962,14.962,0,0,1-14.961,14.961H15.48A14.963,14.963,0,0,1,.516,215.684V15.762A14.964,14.964,0,0,1,15.48.8Zm0,0"/>
    </clipPath>
    <clipPath id="clip-path-3">
      <path id="Path_97" data-name="Path 97" d="M167.047,20.773h21.7v21.7h-21.7Zm0,0"/>
    </clipPath>
    <clipPath id="clip-path-4">
      <path id="Path_100" data-name="Path 100" d="M60,31.473h88.25v80.809H60Zm0,0"/>
    </clipPath>
    <clipPath id="clip-path-5">
      <rect id="Rectangle_3" data-name="Rectangle 3" width="89" height="82"/>
    </clipPath>
    <clipPath id="clip-path-6">
      <path id="Path_99" data-name="Path 99" d="M.1.473H88.25V81.281H.1Zm0,0"/>
    </clipPath>
  </defs>
  <g id="News" transform="translate(-0.516 -0.797)">
    <g id="Group_163" data-name="Group 163" clip-path="url(#clip-path)">
      <g id="Group_162" data-name="Group 162" clip-path="url(#clip-path-2)">
        <path id="Path_89" data-name="Path 89" d="M.516.8H207.773V230.645H.516Zm0,0" fill="#d6e8f7"/>
      </g>
    </g>
    <g id="Group_166" data-name="Group 166">
      <g id="Group_165" data-name="Group 165" transform="translate(54.129 177.374)">
        <g id="Group_164" data-name="Group 164">
          <path id="Path_92" data-name="Path 92" d="M.625-28.18c1.172.3,1.621,1.4,1.621,3.242V-3.492C2.246-1.645,1.8-.547.625-.25V0H9.477V-.25C5.809-1.2,2.742-12.992,2.742-21.047v-1.348L15.785,0h6.906V-.25c-1.172-.3-1.617-1.395-1.617-3.242V-24.937c0-1.844.445-2.941,1.617-3.242v-.25h-8.6v.25c3.316.273,6.484,11.047,6.484,18.4v1.621L8.754-28.43H.625Zm0,0" fill="#caaacd"/>
        </g>
      </g>
    </g>
    <g id="Group_169" data-name="Group 169">
      <g id="Group_168" data-name="Group 168" transform="translate(77.445 177.374)">
        <g id="Group_167" data-name="Group 167">
          <path id="Path_93" data-name="Path 93" d="M11.4.473c4.113,0,8-2.668,8-6.16a8.149,8.149,0,0,1-3.168.648A8.235,8.235,0,0,1,8.926-8.828h2.246c6.012,0,8.555-1.719,8.555-5.012,0-3.516-3.191-6.434-8.855-6.434C5.113-20.273,1-15.637,1-9.9A10.372,10.372,0,0,0,11.4.473ZM8.652-9.3a11.486,11.486,0,0,1-1.246-5.512c0-1.895.723-4.914,3.02-4.914,1.941,0,2.816,2.7,2.816,4.789C13.242-12.32,12.121-9.3,8.8-9.3Zm0,0" fill="#caaacd"/>
        </g>
      </g>
    </g>
    <g id="Group_172" data-name="Group 172">
      <g id="Group_171" data-name="Group 171" transform="translate(97.418 177.374)">
        <g id="Group_170" data-name="Group 170">
          <path id="Path_94" data-name="Path 94" d="M0-19.852v.25c2.07,0,2.719,1.4,3.242,3.02C5.484-9.676,6.434-6.684,8.2,0h6.711C16.336-5.387,17.23-8.2,18.7-12.918,20.176-8.2,21.074-5.387,22.492,0h6.684c1.773-6.684,2.719-9.676,4.965-16.582.523-1.621,1.121-3.02,3.242-3.02v-.25H28.754v.3h.574c4.063,0,1.246,11.77-.125,17.48-1.074-3.965-2.422-8.379-3.766-13.766-.375-1.5.023-3.715,2.168-3.715v-.3H14.289v.25a2.773,2.773,0,0,1,2.145.848C18.9-16.086,16.109-6.883,14.961-2.07c-1.07-3.965-2.441-8.379-3.789-13.766-.375-1.5.023-3.766,2.168-3.766v-.25Zm0,0" fill="#caaacd"/>
        </g>
      </g>
    </g>
    <g id="Group_175" data-name="Group 175">
      <g id="Group_174" data-name="Group 174" transform="translate(134.798 177.374)">
        <g id="Group_173" data-name="Group 173">
          <path id="Path_95" data-name="Path 95" d="M12.344-1.922c0,1.3-.945,1.9-2.219,1.9C6.66-.023,3.441-4.016,1.57-7.73H1.32v5.887C4.164.125,6.609.473,10.1.473c4.012,0,8.254-2.242,8.254-6.281,0-7.133-10.375-6.762-10.375-11.672A2.384,2.384,0,0,1,10.6-19.75c2.844,0,5.438,3.988,6.387,6.957h.246V-20.3h-.246a3.376,3.376,0,0,1-2.047.449c-1.445,0-3.266-.449-5.859-.449C4.738-20.3,1-18.254,1-14.191,1-6.508,12.344-7.059,12.344-1.922Zm0,0" fill="#caaacd"/>
        </g>
      </g>
    </g>
    <g id="Group_176" data-name="Group 176" clip-path="url(#clip-path-3)">
      <path id="Path_96" data-name="Path 96" d="M177.746,20.773a10.7,10.7,0,1,0,10.7,10.7A10.708,10.708,0,0,0,177.746,20.773Zm6.008,11.734h-4.973v4.977a1.035,1.035,0,0,1-2.07,0V32.508h-4.977a1.035,1.035,0,0,1,0-2.07h4.977V25.461a1.035,1.035,0,0,1,2.07,0v4.977h4.973a1.035,1.035,0,0,1,0,2.07Zm0,0" fill="#caaacd"/>
    </g>
    <g id="Group_181" data-name="Group 181" clip-path="url(#clip-path-4)">
      <g id="Group_180" data-name="Group 180">
        <g id="Group_179" data-name="Group 179" transform="translate(60 31)">
          <g id="Group_178" data-name="Group 178" clip-path="url(#clip-path-5)">
            <g id="Group_177" data-name="Group 177" clip-path="url(#clip-path-6)">
              <path id="Path_98" data-name="Path 98" d="M76.9,28.672c-.262.078-.387.113-.594.172C76.449,28.8,76.641,28.742,76.9,28.672ZM64.215,23.156l.234-.316-.363.445-.187.285ZM83.547,46.324l2.3.207-1.078-.113Zm-29.672,9.5-.09-.32-.047-.113ZM17.93,41.324c-.145,0-.348.008-.617.023C17.586,41.336,17.715,41.332,17.93,41.324Zm47.059-19.2-.031.039C64.969,22.148,64.977,22.133,64.988,22.121Zm-7.84,12.152ZM16.176,35.918l.051.012A.339.339,0,0,0,16.176,35.918ZM33.613,40.5h-.008C33.617,40.5,33.621,40.5,33.613,40.5Zm54.5,1.43c0,.094-.008.121-.008.121,0,1.551,0,3.133.008,4.68-.867-.094-1.727-.184-2.562-.27-.738-.086-1.457-.168-2.148-.25-.16.008-.953-.059-1.895-.148l-.191.047c-1.5-.152-3.215-.32-4.617-.48-2.492-.23-4.777-.5-6.93-.75-.379-.016-.488,0,.047.066-2.008-.227-4.32-.469-6.676-.711l-.164-.012c-.051-.008-.043-.008-.078-.012q-1.564-.164-3.113-.32c-.078-.008-.156-.012-.23-.016-.039,0-.074-.008-.109-.008l-.035,0h-.145c-.07,0-.121,0-.164-.008-.113-.008-.207-.012-.289-.02.156.09.246.152.352.223.055.043.105.078.156.117.168.1.328.2.492.309,1.7,1,3.2,1.9,4.234,2.539.77.438,1.473.836,2.2,1.25-.09-.055-.113-.074-.23-.145l-.832-.461c-.762-.457-1.762-1.055-.8-.539l.293.207c1.2.66,4.477,2.566,3.734,2.074,1.551.93.961.613-.105.012.867.492,1.625.926,2.355,1.352,1.492.844,2.98,1.691,4.547,2.578l1.188.68c.2.117.4.23.605.348s.406.238.621.344c.848.441,1.727.895,2.645,1.371l-.082-.023c1,.531,2.488,1.316,3.762,2.008-.059-.062-.727-.437-1.2-.7.539.293,1.07.574,1.586.844.691.355,1.363.7,2,1.035L84.77,60.34l-1,.7c-.629.445-1.2.848-1.684,1.188l1.457-.961c-.434.289-.828.555-1.207.8s-.738.5-1.1.754l.793-.621c-.484.336-.934.652-1.266.879-.262-.168-.527-.336-.57-.363-.086-.051-.137-.078-.137-.07-.738-.527.227.043-.562-.535-.875-.555-1.773-1.129-2.734-1.738-.074-.02-.6-.32.281.273q-.639-.416-1.445-.934l.34.246c-3.477-2.184-1.527-1.113-5.094-3.445.426.336-.875-.465-1.457-.855,1.441.941.734.383-.562-.512-.547-.348-.957-.613-1.3-.84-.148-.094-.3-.187-.457-.285l.137.07c-.289-.191-.523-.352-.73-.492-.219-.121-.422-.23-.633-.348s-.453-.246-.734-.391l1.027.523c-2.7-1.441-6.1-3.176-9.488-4.926-.105-.023.063.1-.629-.246-.16-.09-.312-.176-.457-.254-.047-.027-.086-.051-.129-.074-.082-.043-.156-.086-.219-.113.059.1.113.188.16.262l.035.055.016.023a.218.218,0,0,1,.031.051c.086.148.172.3.262.461.359.629.77,1.371,1.371,2.512-.434-.687-.527-.855.035.238.5.859,1.074,1.891,1.684,2.984.129.234.258.465.387.7l3.07,5.551-.816-1.387c1.422,2.5,1.875,3.438,2.449,4.566.141.25.27.488.414.75L64,64c.418.82.93,1.785,1.926,3.535L64.6,64.953a18.939,18.939,0,0,0,1.648,2.883c.258.492.4.773.488.961.043.09.074.16.1.215a.86.86,0,0,0,.035.082c.012.031.016.039.039.09.012.035.027.078.043.125s.031.09.055.152c.047.125.117.3.227.566.148.363.293.7.461,1.105.047.109.074.18.129.3l-.016-.031a14.81,14.81,0,0,1,.586,1.535l1,2.16c.207.477.391.9.559,1.293.227.535.426,1.016.613,1.461l-.746-.012c-.2,0-.395,0-.582-.008l-.812-.023c.113.008.313.023.621.043-1.371,0-2.687,0-3.984,0,.234,0,.352.008.734.016h-.988c-.3-.441-.574-.828-.777-1.121a4.4,4.4,0,0,1-.3-.477c-.074-.105-.145-.211-.219-.32-.176-.246-.395-.562-.66-.961-.469-.68-.934-1.355-1.391-2.02L60.7,71.875l.129.168.57.828c-.172-.25-.34-.5-.512-.742l-.059-.086-.016-.023c-.633-.914-1.254-1.816-1.875-2.711s-1.262-1.8-1.891-2.7l-.469-1.535c-.262-1.164-1.047-3.844-1.758-6.281-.242-.793-.469-1.551-.68-2.246-.043-.137-.082-.27-.125-.4-.027-.09-.059-.176-.086-.262-.055-.16-.105-.293-.145-.387-.047-.164-.094-.336-.145-.516-.141-.492-.285-1-.426-1.492.051.5.1.984.145,1.4.063.539.109,1,.156,1.434.012.078.02.148.031.23a2.512,2.512,0,0,1-.016-.293q.035.316.07.574c.023.215.047.4.066.574.035.348.063.621.082.859.109.945.211,1.848.281,2.449-.07-.531-.148-1.145-.234-1.785.016.3.031.586.059.953.121.949.234,1.809.3,2.355l-.008.4c0,.027,0,.043.008.07.332,2.168-.211-2.273-.023-.918.242.574.555,5.145.984,8.008l-.07-.7c.148,1.043.277,2.309.418,3.734.07.715.145,1.469.219,2.254.043.395.082.8.125,1.2q.076.686.152,1.395c-.18.113-.363.23-.551.348l.027.016c-.426.246-.969.57-1.516.9-.523.332-1.031.641-1.484.9-.832.512-1.687,1.035-2.582,1.586-.008-.2-.016-.422-.023-.648-.008-.121-.012-.125-.023-.34,0-.074,0-.082.008-.121-.043-1.207-.082-2.4-.121-3.48-.023,1.078.031,1.574-.066.918-.051-1.441.094,0,.031-2.2-.027-.492-.055-.937-.082-1.4-.074-1.066-.16-2.367-.227-2.586l.121,2.922c-.16-1.492-.156-3.785-.238-5.324l-.035.2c-.094-2.359-.109-3.516-.133-4.766-.023-.508-.047-1-.07-1.453-.008-.227-.02-.449-.027-.664s-.008-.41-.012-.6l-.012-.07.016.07.031.6c0-.187,0-.387-.008-.6-.016-.1-.035-.2-.055-.312-.09-.488-.164-.871-.281-1.508l.008.047c-.355-1.84-.758-3.715-.93-4.766l-.105-.32c-.129-.742-.359-2.07-.648-3.715-.035.105-.109.367-.191.648-.031.109-.055.191-.086.316l.008-.047c-.094.328-.18.633-.27.957-.105.4-.211.8-.324,1.223.156-.523.34-1.141.531-1.793.105-.34.215-.7.324-1.055.047.289.09.57.133.836.008.059.016.113.027.168.016.105.031.2.051.3.039.234.078.457.113.668-.055-.289-.129-.664-.207-1.078-.039-.211-.082-.445-.125-.68-.105.363-.207.73-.3,1.035-.18.652-.332,1.168-.414,1.418l.3-1.09.227-.812c-.023.066-.047.133-.07.2l-.02.055-.031.109-.07.223c-.09.3-.184.621-.277.945q-.281.984-.605,2.105c-.379,1.453-.758,2.906-1.117,4.277a.787.787,0,0,1-.012.113l.008-.027-.012.047c-.117.582-.469,1.953-.891,3.547l.027-.055c-.137.539-.219.828-.277,1.012-.648,2.445-1.359,5.141-1.594,6.3-.27.988-.543,1.973-.812,2.961q-.439,1.635-.883,3.293c-2.336-.727-4.715-1.465-7.2-2.234.773-1.93,1.574-3.93,2.414-6.023-.707,2.141.477-1.086.719-1.43.211-.543.445-1.133.742-1.855-.309.66-.758,1.637-.039-.23-.742,2.012,1.148-2.613.422-.648l.043-.094,1.566-4.121c.4-1.113-.621,1.445-.6,1.289,1.336-3.352.5-1.43,1.352-3.66a18.29,18.29,0,0,0,1.3-3.055L39.848,58.1c.941-2.219,1.328-3.254,1.691-4.242l.066-.184.012-.043a.5.5,0,0,1,.016-.074q.012-.053.023-.117a2.764,2.764,0,0,1,.164-.395l-.023.016a.161.161,0,0,1-.016.059c-.062.125-.117.234-.164.316.02-.035.039-.078.063-.129-.02.02-.066.078-.125.156l-.1.133c-.289.4-.578.809-.867,1.215-1.18,1.648-2.332,3.246-3.086,4.227-.141.2-.262.371-.383.543-.184.3-.277.484.258-.262-1.789,2.559-3.82,5.375-5.742,8.055l-1.418,1.98c-.23.32-.457.641-.684.957s-.473.605-.7.9c-.918,1.184-1.758,2.289-2.484,3.266l.324-.355c-.25.32-.488.613-.73.91-.117.148-.238.3-.359.449l-.574.73c-.246-.187-.516-.395-.8-.613.066.051.078.059.16.125l-.3-.234c-.07-.055-.129-.1-.2-.152l-.09-.012c-.215-.176-.727-.582-1.328-1.062-.3-.242-.633-.5-.957-.758-.395-.3-.789-.605-1.152-.887l-.211-.152.055-.066-.062.07.648.52.387.316c-.391-.3-.77-.582-1.094-.832.586-.676,1.137-1.312,1.66-1.922q.668-.756,1.277-1.453c.824-.918,1.582-1.77,2.336-2.613a1.3,1.3,0,0,1,.1-.141,3.192,3.192,0,0,0,.379-.4c.227-.258.539-.609.879-.992l-.7.707c.57-.656,1.133-1.3,1.8-2.1L26.668,64.9c.754-.844,1.742-1.953,2.887-3.234.18-.234.457-.582.789-.988s.719-.863,1.121-1.344c.648-1.066,1.344-2.211,1.852-3.043l-.059.063c.973-1.562,1.879-3,2.746-4.367.434-.684.855-1.352,1.273-2.008.1-.141.191-.277.285-.414l-.379.234c-.547.371-1.094.742-1.648,1.121-1.187.809-2.41,1.645-3.711,2.531-1.336,1-3.465,2.5-5.879,4.2s-5.1,3.566-7.566,5.3c-1.035.891-2.016,1.738-2.914,2.516.746-.664-.187.035-1.078.781-.211.184-.457.391-.711.605l-1.066.891c-.187-.379-.367-.742-.531-1.078-.117-.23-.223-.441-.309-.613-.176-.34-.285-.531-.281-.445l.25.488c-.242-.391-.609-1.062-1.031-1.871-.207-.406-.43-.844-.664-1.3-.285-.562-.578-1.145-.867-1.719.594-.359,1.18-.711,1.734-1.043l.418-.086c1.863-1.2,4.164-2.6,6.5-4s4.688-2.793,6.688-3.984c.43-.3.836-.6,1.227-.875s.754-.551,1.1-.8c.68-.5,1.254-.934,1.684-1.273,1.273-.883,2.863-1.988,4.129-2.863l-.113-.016,1.516-1.094c.082-.062.156-.117.227-.172l-.285.047c-.527.078-1.059.16-1.625.242-1.254.184-2.641.391-4.371.645l1.082-.105c-2.969.445-3.789.34-6.531.746l-.8.234c-5.187.773-10.418,1.656-15.562,2.32a5.965,5.965,0,0,0,1.09-.109c-.7.109-1.723.266-2.855.438,0-.895,0-1.859-.008-2.789,0-.777,0-1.523,0-2.156a8.134,8.134,0,0,1,.078-1.789,1.2,1.2,0,0,1-.008-.141c0-.035,0-.074-.008-.121,0-.062,0-.133,0-.211,0-.156,0-.332,0-.531l1-.043c.254-.008.535-.02.836-.027.6-.02,1.285-.035,1.988-.055,1.41-.031,2.91-.066,4.023-.09l-.449-.059c2.391.008,2.469.031,5.8-.066.586-.027.676-.059.266-.051,1.824-.078,1.77,0,4.625-.137l-1.191-.008c2.711-.105,2.5-.07,3.988-.07,1.7-.031,5.137-.207,5.535-.293.207.016.777.023,1.508.012l.156-.008c-.016,0,.074,0,.133,0l.574-.012.52-.023c.023-.016-.066-.02-.172-.027s-.223,0-.312,0c.434-.027.789-.043,1.148-.055-.34-.09-.629-.172-.926-.258-.156-.047-.309-.09-.457-.133-.262-.07-.523-.145-.777-.215-1.125-.309-2.191-.594-3.41-.879a2.5,2.5,0,0,1-.516-.09c1.742.453,3.313.867,4.418,1.152.293.078.523.137.672.176.086.02.141.035.16.039a2.694,2.694,0,0,1-.285-.031c-.113-.02-.227-.035-.3-.043a.253.253,0,0,0-.078,0c-.008,0-.047,0-.02.016,0,.02.055.051.055.078l-.023-.02-.02-.012-.016,0-.008,0-.059-.02c-.328-.094-.672-.191-1.031-.3-.719-.2-1.5-.426-2.285-.652-1.586-.445-3.234-.9-4.609-1.242l-.363-.07.277.078-1.734-.465c-.871-.215-1.437-.355-2.273-.574-.336-.027-3.234-.816-4.641-1.184.133-.043-1.664-.5-.02-.133-.047-.008.43.121,1.246.336l.594.164-.086-.027,3.48.918c-1.1-.328-2.25-.664-3.809-1.027-.707-.238-1.488-.5-1.93-.637-1.945-.4-5.66-1.312-6.191-1.383l-3.422-.926c-.992-.5-2-1-2.973-1.492L.113,30.332c.1-.23.191-.457.289-.676q.094-.223.188-.434c.121-.281.242-.555.355-.809.227-.516.434-.973.617-1.359.2-.469.324-.781.406-1.016.109-.309.18-.508.254-.715.109.012.219.027.344.043L2.211,25.3l-.766,1.781c.219-.512.477-1.125.758-1.793l4.074.734c1.18.219,2.1.4,2.328.48a19.809,19.809,0,0,1,2.551.367l-.57-.133,2.188.352q.668.223,1.313.434l1.246.418,2.4.824c1.566.555,3.09,1.09,4.652,1.641,3.125,1.1,6.41,2.242,10.551,3.531l-1.082-.324,4.789,1.578c-3.25-2.18-6.547-4.387-9.82-6.578-3.7-2.473-7.367-4.914-10.961-7.246-1.105-.719-1.777-1.172-2.309-1.543-.594-.422-1.043-.742-1.668-1.184.16-.137.387-.332.637-.551l.434-.5,2.414-2.062c.633-.559,1.227-1.094,1.8-1.625.605-.566,1.2-1.117,1.793-1.676.531.441,1.066.883,1.617,1.336.508.426,1.031.859,1.578,1.313,1.09.918,2.266,1.926,3.59,3.121l-.594-.437c1.559,1.324,4.9,4.25,4.68,3.977a12.6,12.6,0,0,0,1.1.98L31,22.52l3.77,3.332c2.973,2.512-.355-.531,3.965,3.172,1.172,1.02,3.047,2.711,3.711,3.336-.219-.906-.742-3.344-1.043-4.855-1.051-5.594-.074-1.187-.77-5.02l-1.012-4.93.031-.066a13.335,13.335,0,0,0-.3-1.437c.125.324-.746-4.031-1.117-6.043l.086.734c-.348-1.621-.621-3.047-.859-4.359-.117-.66-.227-1.289-.336-1.9-.109-.645-.215-1.27-.32-1.891l2.539-.867c.82-.289,1.66-.59,2.543-.922l.836-.328.441,2.469.016.664c.324,1.828.434,2.141.859,5.156.5,3.684,1.055,7.453,1.625,11.258.566,3.711,1.133,7.453,1.7,11.172q1.617-1.787,3.215-3.559,1.705-1.863,3.383-3.7l-.785.813c.746-.789,1.449-1.547,2.117-2.273.336-.363.66-.723.98-1.07s.625-.691.926-1.023l1.023-2c.328-.656.648-1.3.969-1.93.629-1.266,1.242-2.5,1.863-3.742,1.238-2.484,2.52-5.008,4.094-7.918l-.238.531a20.821,20.821,0,0,1,1.25-2.254,2.894,2.894,0,0,1,.113-.27q.105-.223.281-.586c.355.25.828.582,1.367.965.48.348,1.023.738,1.578,1.137,1.105.8,2.254,1.633,3.086,2.227L70.969,5.387A16.234,16.234,0,0,0,72.48,6.57c.348.23.754.5,1.2.816.227.156.461.32.711.492l.93.66c-.48.652-1,1.348-1.539,2.074-.5.664-1.016,1.355-1.535,2.047-1.035,1.387-2.082,2.785-3.016,4.027-.281.285-1.68,2.055-2.9,3.563-.18.238-.344.465-.48.668l.2-.25c-.875,1.137-1.281,1.648-1.484,1.895-.156.238-.32.484-.48.723-1,1.25-1.7,2.223-2.359,3.156.852-1.125,1.6-2.113,2.172-2.871l-.051.082.367-.5c.512-.68.809-1.074.773-1.035,1.07-1.309-.062.164.066.117-.879,1.156-2.676,3.563-2.922,3.793-.527.688-.883,1.145-1.437,1.855l-1.078,1.438.172-.238-.242.281c-.059.078-.133.172-.2.254-.66.9-.777,1.047-.727.957-.578.766-1.184,1.582-1.777,2.391-.293.4-.582.8-.867,1.188-.1.152-.18.273-.238.367.105-.039.207-.074.3-.105.039-.016.074-.031.109-.043.133-.039.258-.078.383-.117-.141.047-.258.086-.359.117l-.02.012-.012,0-.016.008-.035.016a.839.839,0,0,0-.09.055c-.027.023.012.027.1.012l.078-.012c.059-.012.121-.027.18-.043.129-.027.258-.055.371-.082a1.659,1.659,0,0,1,.414-.07c-.055.012-.234.063-.52.141s-.7.191-1.219.336c.543-.711,1.227-1.613,1.973-2.59a2.408,2.408,0,0,1-.352.387c-.281.355-.551.7-.809,1.031-.219.289-.434.566-.645.852l-.016.027-.023.023c-.09.117-.176.238-.273.367.473-.141.961-.281,1.488-.437l2.18-.625c.129-.039.129-.039.309-.1.051-.012.117-.023.172-.035l1.746-.477c-.18.055-.406.129-.531.176.887-.242,1.938-.559,2.945-.859.1-.035.215-.074.266-.094.023,0,.145-.035.191-.043.563-.164,1.1-.32,1.57-.445a8.173,8.173,0,0,0,1.141-.266c-.3.055-.684.145-1.141.266l.223-.117a3.5,3.5,0,0,1,.926-.148c.742-.2,1.77-.484,2.934-.809.441-.145.719-.238,1.164-.371l2.164-.648-1.125.391c.641-.184,1.051-.309,1.434-.426.2-.062.523-.164.906-.285.594-.2,1.125-.371,2.082-.652-.105.035-.16.059-.2.07l3.914-1.2c.566-.2,1.121-.387,2.066-.711l-.387.191c.1-.031.227-.07.32-.1l-.086.008c.043,0,.172-.039.238-.055l2.828-.895c.492-.152.984-.3,1.449-.453.6-.18,1.16-.352,1.664-.508v1.133c0,.227,0,.426,0,.594-.008.227-.016.391-.023.473.031-.078.051.215.063.75.008.309.016.7.016,1.133,0,.516,0,1.09,0,1.7-1.922.578-4.2,1.258-5.4,1.617a5.643,5.643,0,0,0,1.035-.371c-4.934,1.605-10.039,3.051-15.059,4.574l-.418.066c-.148.059-.262.1-.395.156-.48.133-1.367.395-2.289.672l-.711.262-.176.066-.09.031-.035.02-.117.059c-.141.07-.2.113-.289.152.07,0,.129.008.188.016-.1,0-.223,0-.371,0l.012-.02a.719.719,0,0,1-.07.023c.684.074,1.27.137,1.793.191.988.113,1.867.211,2.715.3,1.7.2,3.281.375,5.379.617l-.094.066c1.535.148,3.457.336,5,.484.875.145,2.184.309,3.754.484,1.641.18,3.555.383,5.563.6v.273l.016-.09C88.113,41.582,88.113,41.8,88.113,41.926ZM62.367,25.719a13.631,13.631,0,0,0,.875-1.121l.2-.328-.062.1ZM20.457,37.133,18.828,36.7l-.113-.039.363.133A13.361,13.361,0,0,0,20.457,37.133Zm22.086-4.445.105.09-.043-.234c-.031-.027-.066-.055-.1-.086.008.047.02.09.027.137l.07.074-.07-.062s0,0,0,0C42.539,32.648,42.543,32.672,42.543,32.688Zm-.047-.281c.035.035.07.066.1.094l-.086-.285.047.059-.148-.785-.223-1.094C42.156,30.457,42.344,31.574,42.5,32.406Zm-1.637-1.27,1.453,1.277c.027.047.074.113.121.18l.094.082c-.008-.023-.016-.055-.027-.1l-.187-.164-.039-.09.223.234c-.012-.039-.02-.086-.035-.137A19.913,19.913,0,0,0,40.859,31.137ZM56.293,49.984c.152.246.336.555.535.891L56.086,49.5A1.875,1.875,0,0,0,56.293,49.984Zm25.516-3.953-.141-.012h-.012ZM77.043,60.652l.719.48C77.543,60.984,77.3,60.824,77.043,60.652ZM17.6,36.281l-.559-.129.379.105.508.133Zm44.715-3.473c1.445-.426,1.145-.352-.1-.031C62.332,32.762,60.371,33.34,62.316,32.809ZM67.789,44.75l-.68-.078-1.9-.207ZM54.605,58.27l-.215-.426C54.859,59.523,54.887,59.285,54.605,58.27Zm-5.9,2.348c-.121-.687-.414-2.027-.68-3.379C48.188,58.289,48.539,59.973,48.707,60.617ZM12.832,59.008l1.063-.609.93-.562Zm0,0" fill="#caaacd"/>
            </g>
          </g>
        </g>
      </g>
    </g>
  </g>
</svg>
