<svg xmlns="http://www.w3.org/2000/svg" width="45.549" height="37.192" viewBox="0 0 45.549 37.192">
  <g id="Group_6" data-name="Group 6" transform="translate(-181 -633)">
    <g id="rest-api-icon" transform="translate(181.001 632.998)">
      <path id="Path_8" data-name="Path 8" d="M38.1,2.637l.96,1.264a.761.761,0,0,1-.145,1.064L37.9,5.74A5.942,5.942,0,0,1,38.252,7.3l1.16.159a.76.76,0,0,1,.649.856l-.215,1.575a.758.758,0,0,1-.856.649l-1.268-.174a5.911,5.911,0,0,1-.856,1.349l.712.934a.761.761,0,0,1-.148,1.064l-1.264.96a.764.764,0,0,1-1.064-.145l-.775-1.019a5.969,5.969,0,0,1-1.561.352l-.159,1.16a.76.76,0,0,1-.856.649l-1.575-.215a.76.76,0,0,1-.649-.856l.174-1.268a6.111,6.111,0,0,1-1.349-.853l-.934.708a.761.761,0,0,1-1.064-.145l-.96-1.264a.761.761,0,0,1,.145-1.064l1.019-.775A5.976,5.976,0,0,1,26.2,8.379l-1.16-.159a.758.758,0,0,1-.649-.856l.215-1.575a.763.763,0,0,1,.856-.649l1.268.174a6.111,6.111,0,0,1,.853-1.349l-.708-.934a.757.757,0,0,1,.145-1.06l1.264-.96a.761.761,0,0,1,1.064.145l.775,1.019a5.942,5.942,0,0,1,1.557-.352l.159-1.16A.763.763,0,0,1,32.7.008l1.575.215a.758.758,0,0,1,.649.856l-.174,1.268A6.016,6.016,0,0,1,36.1,3.2l.934-.708a.762.762,0,0,1,1.068.141ZM11,24.882V18.766h3.151a4.424,4.424,0,0,1,1.338.152,1.412,1.412,0,0,1,.745.556,1.873,1.873,0,0,1,.067,1.872,1.684,1.684,0,0,1-.6.6,2.259,2.259,0,0,1-.664.241,1.8,1.8,0,0,1,.489.226,1.92,1.92,0,0,1,.3.323,2.475,2.475,0,0,1,.263.382l.919,1.768H14.876l-1.008-1.865a1.438,1.438,0,0,0-.341-.471.813.813,0,0,0-.463-.141H12.9v2.476H11Zm6.665,10.65H14.134l-.508,1.661H10.446l3.792-10.079h3.41l3.777,10.079H18.164l-.5-1.661ZM17,33.349l-1.1-3.625-1.1,3.625Zm5.156-6.235h5.182a3.535,3.535,0,0,1,2.536.8,3.037,3.037,0,0,1,.841,2.295A3.122,3.122,0,0,1,29.8,32.6a3.98,3.98,0,0,1-2.806.86H25.285v3.729H22.16V27.114Zm3.125,4.308h.767a1.974,1.974,0,0,0,1.275-.315,1.007,1.007,0,0,0,.367-.8,1.119,1.119,0,0,0-.319-.8,1.664,1.664,0,0,0-1.2-.33h-.893v2.25Zm6.695-4.308H35.1V37.193H31.98V27.114ZM12.9,21.25h.8a2.941,2.941,0,0,0,.5-.085.5.5,0,0,0,.308-.193.622.622,0,0,0-.07-.812,1.122,1.122,0,0,0-.7-.159H12.9V21.25Zm4.478-2.484h5.06v1.3H19.272v.975H22.2v1.246H19.272v1.2h3.255v1.383H17.374V18.766Zm5.6,4.093,1.794-.111a1.34,1.34,0,0,0,.237.664,1.011,1.011,0,0,0,.834.371.926.926,0,0,0,.623-.189.574.574,0,0,0,.219-.441.568.568,0,0,0-.208-.426,2.429,2.429,0,0,0-.968-.356,4.137,4.137,0,0,1-1.772-.741,1.489,1.489,0,0,1-.534-1.179,1.6,1.6,0,0,1,.274-.89,1.814,1.814,0,0,1,.823-.66,3.86,3.86,0,0,1,1.505-.237,3.057,3.057,0,0,1,1.787.437,1.893,1.893,0,0,1,.73,1.39l-1.776.108a.973.973,0,0,0-.3-.6.957.957,0,0,0-.626-.189.763.763,0,0,0-.5.141.43.43,0,0,0-.167.341.357.357,0,0,0,.137.263,1.578,1.578,0,0,0,.63.226,7.917,7.917,0,0,1,1.776.541,1.841,1.841,0,0,1,.778.678,1.706,1.706,0,0,1,.245.9,1.915,1.915,0,0,1-.326,1.082,2.026,2.026,0,0,1-.908.753,3.677,3.677,0,0,1-1.472.256,3.038,3.038,0,0,1-2.161-.6,2.418,2.418,0,0,1-.682-1.531ZM28.8,18.766h5.75v1.512H32.621v4.6H30.731v-4.6H28.8V18.766ZM22.438,4.249a11.748,11.748,0,0,0-2.043.022,11.18,11.18,0,0,0-5.79,2.261,10.866,10.866,0,0,0-3.978,6.725l-.178.93-.927.163a12.764,12.764,0,0,0-2.432.656,8.133,8.133,0,0,0-1.842.986,6.111,6.111,0,0,0-1.116,1.038,6.293,6.293,0,0,0-1.416,4.115,7.44,7.44,0,0,0,1.4,4.274,6.985,6.985,0,0,0,1.171,1.26,5.88,5.88,0,0,0,1.531.919,7.236,7.236,0,0,0,1.027.334V30.71a10.023,10.023,0,0,1-2.061-.6,8.588,8.588,0,0,1-2.243-1.346,9.573,9.573,0,0,1-1.631-1.75A10.2,10.2,0,0,1,0,21.153a9,9,0,0,1,2.046-5.876,8.757,8.757,0,0,1,1.609-1.5,10.847,10.847,0,0,1,2.461-1.316,14.892,14.892,0,0,1,2.039-.623,13.4,13.4,0,0,1,4.789-7.466,13.916,13.916,0,0,1,7.2-2.814,14.691,14.691,0,0,1,4.089.182,3.113,3.113,0,0,0-.07.371l0,.022a3.657,3.657,0,0,0-.026.638,3.219,3.219,0,0,0-.793.449l-.011.007a3.318,3.318,0,0,0-.89,1.019Zm19.614,7.117c.208.189.408.386.6.6a10.822,10.822,0,0,1,1.123,1.446,12.214,12.214,0,0,1,1.768,6.643,10.909,10.909,0,0,1-1.946,6.38,10.175,10.175,0,0,1-3.214,2.751,15.194,15.194,0,0,1-2.969,1.242V27.552a12,12,0,0,0,1.631-.741A7.428,7.428,0,0,0,41.418,24.8a8.2,8.2,0,0,0,1.4-4.771A9.44,9.44,0,0,0,41.488,14.9a7.693,7.693,0,0,0-.834-1.071c-.115-.122-.23-.237-.348-.348a3.566,3.566,0,0,0,.015-.563,3.219,3.219,0,0,0,.793-.449l.011-.007a3.365,3.365,0,0,0,.927-1.09Zm-9.4-6.621a3.124,3.124,0,1,1-3.518,2.673,3.122,3.122,0,0,1,3.518-2.673Z" fill="#fff" fill-rule="evenodd"/>
    </g>
  </g>
</svg>
