<svg xmlns="http://www.w3.org/2000/svg" xmlns:xlink="http://www.w3.org/1999/xlink" width="207.258" height="229.848" viewBox="0 0 207.258 229.848">
  <defs>
    <clipPath id="clip-path">
      <path id="Path_3" data-name="Path 3" d="M.516.855H207.773V230.7H.516Zm0,0"/>
    </clipPath>
    <clipPath id="clip-path-2">
      <path id="Path_2" data-name="Path 2" d="M15.48.855H192.813A14.963,14.963,0,0,1,207.773,15.82V215.738A14.963,14.963,0,0,1,192.813,230.7H15.48A14.964,14.964,0,0,1,.516,215.738V15.82A14.964,14.964,0,0,1,15.48.855Zm0,0"/>
    </clipPath>
    <clipPath id="clip-path-3">
      <path id="Path_14" data-name="Path 14" d="M167.047,22.25h21.7v21.7h-21.7Zm0,0"/>
    </clipPath>
    <clipPath id="clip-path-4">
      <path id="Path_16" data-name="Path 16" d="M73.848,31H130v84.934H73.848Zm0,0"/>
    </clipPath>
  </defs>
  <g id="TechStack" transform="translate(-0.516 -0.855)">
    <g id="Group_2" data-name="Group 2" clip-path="url(#clip-path)">
      <g id="Group_1" data-name="Group 1" clip-path="url(#clip-path-2)">
        <path id="Path_1" data-name="Path 1" d="M.516.855H207.773V230.7H.516Zm0,0" fill="#cb962e"/>
      </g>
    </g>
    <g id="Group_5" data-name="Group 5">
      <g id="Group_4" data-name="Group 4" transform="translate(60.957 160.222)">
        <g id="Group_3" data-name="Group 3">
          <path id="Path_4" data-name="Path 4" d="M.625-18.828H.871c0-3.59,3.07-9.1,6.438-9.1V-3.492c0,1.848-.449,2.945-1.621,3.242V0H16.906V-.25c-1.172-.3-1.621-1.395-1.621-3.242V-27.93h.25c3.367,0,6.434,5.512,6.434,9.1h.25v-9.6H.625Zm0,0" fill="#fdf3dd"/>
        </g>
      </g>
    </g>
    <g id="Group_8" data-name="Group 8">
      <g id="Group_7" data-name="Group 7" transform="translate(83.798 160.222)">
        <g id="Group_6" data-name="Group 6">
          <path id="Path_5" data-name="Path 5" d="M11.4.473c4.113,0,8-2.668,8-6.16a8.149,8.149,0,0,1-3.168.648A8.235,8.235,0,0,1,8.926-8.828h2.246c6.012,0,8.555-1.719,8.555-5.012,0-3.516-3.191-6.434-8.855-6.434C5.113-20.273,1-15.637,1-9.9A10.372,10.372,0,0,0,11.4.473ZM8.652-9.3a11.486,11.486,0,0,1-1.246-5.512c0-1.895.723-4.914,3.02-4.914,1.941,0,2.816,2.7,2.816,4.789C13.242-12.32,12.121-9.3,8.8-9.3Zm0,0" fill="#fdf3dd"/>
        </g>
      </g>
    </g>
    <g id="Group_11" data-name="Group 11">
      <g id="Group_10" data-name="Group 10" transform="translate(103.772 160.222)">
        <g id="Group_9" data-name="Group 9">
          <path id="Path_6" data-name="Path 6" d="M1-9.9A10.372,10.372,0,0,0,11.4.473c4.113,0,8-2.668,8-6.16a8.149,8.149,0,0,1-3.168.648c-5.137,0-8.828-3.488-8.828-9.75,0-1.918.672-4.961,2.32-4.961.723,0,1,.6,1,1.32,0,1.547-1.348,2.371-1.348,4.738a4.27,4.27,0,0,0,4.613,4.414c2.895,0,5.039-1.82,5.039-4.789,0-4.137-4.09-6.234-8.156-6.234C5.113-20.3,1-15.637,1-9.9Zm0,0" fill="#fdf3dd"/>
        </g>
      </g>
    </g>
    <g id="Group_14" data-name="Group 14">
      <g id="Group_13" data-name="Group 13" transform="translate(124.17 160.222)">
        <g id="Group_12" data-name="Group 12">
          <path id="Path_7" data-name="Path 7" d="M.25-26.758v.25c.621,0,1.672.945,1.672,3.289V-3.492C1.922-1.645,1.473-.547.3-.25V0H11.023V-.25C9.852-.547,9.4-1.645,9.4-3.492v-11c0-1.7.973-3.266,2.543-3.266s1.844,1.77,1.844,3.141V-3.492c0,1.848-.449,2.945-1.621,3.242V0H22.895V-.25c-1.172-.3-1.621-1.395-1.621-3.242V-13.664c0-2.594-.676-6.637-5.762-6.637A6.863,6.863,0,0,0,9.4-16.535V-28.9h-.25a1.656,1.656,0,0,1-.3.148A30.448,30.448,0,0,1,.25-26.758Zm0,0" fill="#fdf3dd"/>
        </g>
      </g>
    </g>
    <g id="Group_17" data-name="Group 17">
      <g id="Group_16" data-name="Group 16" transform="translate(55.181 194.64)">
        <g id="Group_15" data-name="Group 15">
          <path id="Path_8" data-name="Path 8" d="M14.715-3.59c0,1.992-.848,3.539-3.617,3.539-5.063,0-9.379-9.8-9.379-11.895h-.3V-2.52A15.035,15.035,0,0,0,11.148.473c5.586,0,9.7-3.738,9.7-8.676,0-10.277-13.691-8.48-13.691-16.836a3.205,3.205,0,0,1,3.391-3.391c3.816,0,8.133,5.164,8.555,8.578h.25V-28.9H19.1a1.993,1.993,0,0,1-1.445.473c-2.7,0-4.391-.473-7.082-.473C5.238-28.9,1.121-26.41,1.121-21,1.121-10.348,14.715-12.395,14.715-3.59Zm0,0" fill="#fdf3dd"/>
        </g>
      </g>
    </g>
    <g id="Group_20" data-name="Group 20">
      <g id="Group_19" data-name="Group 19" transform="translate(77.15 194.64)">
        <g id="Group_18" data-name="Group 18">
          <path id="Path_9" data-name="Path 9" d="M1.672-19.375V-9.1c0,4.687.8,9.6,6.309,9.6,2.395,0,3.742-1.3,3.742-2.594-2.121,0-2.57-2.145-2.57-7.008V-19.375H11.6v-.477H9.152V-23.34H8.9A16.6,16.6,0,0,1,0-19.852v.477Zm0,0" fill="#fdf3dd"/>
        </g>
      </g>
    </g>
    <g id="Group_23" data-name="Group 23">
      <g id="Group_22" data-name="Group 22" transform="translate(88.247 194.64)">
        <g id="Group_21" data-name="Group 21">
          <path id="Path_10" data-name="Path 10" d="M1-4.715A5.032,5.032,0,0,0,6.133.473c2.645,0,4.641-1.344,5.637-4.488C11.922-1.871,13.242.473,15.934.473A10.256,10.256,0,0,0,21.3-1.246V-1.5C19.852-1.5,19.4-2.969,19.4-4.84v-7c0-2.77-1.621-8.457-9.426-8.457-5.461,0-7.758,2.77-7.758,5.063a2.808,2.808,0,0,0,2.969,2.82c2.344,0,3.016-2.2,4.863-2.2.5,0,1.246.148,1.246.824C11.3-11.547,1-12.445,1-4.715ZM8.453-6.781c0-5.988,3.293-5.113,3.293-7.086,0-.8-.672-1.047-1.371-1.371A2.494,2.494,0,0,1,8.7-17.68c0-.523.223-2.246,1.273-2.246,1.969,0,1.77,3.59,1.77,4.988V-4.789c0,.273-.7.848-1.371.848C9.1-3.941,8.453-5.41,8.453-6.781Zm0,0" fill="#fdf3dd"/>
        </g>
      </g>
    </g>
    <g id="Group_26" data-name="Group 26">
      <g id="Group_25" data-name="Group 25" transform="translate(109.792 194.64)">
        <g id="Group_24" data-name="Group 24">
          <path id="Path_11" data-name="Path 11" d="M1-9.9A10.372,10.372,0,0,0,11.4.473c4.113,0,8-2.668,8-6.16a8.149,8.149,0,0,1-3.168.648c-5.137,0-8.828-3.488-8.828-9.75,0-1.918.672-4.961,2.32-4.961.723,0,1,.6,1,1.32,0,1.547-1.348,2.371-1.348,4.738a4.27,4.27,0,0,0,4.613,4.414c2.895,0,5.039-1.82,5.039-4.789,0-4.137-4.09-6.234-8.156-6.234C5.113-20.3,1-15.637,1-9.9Zm0,0" fill="#fdf3dd"/>
        </g>
      </g>
    </g>
    <g id="Group_29" data-name="Group 29">
      <g id="Group_28" data-name="Group 28" transform="translate(130.189 194.64)">
        <g id="Group_27" data-name="Group 27">
          <path id="Path_12" data-name="Path 12" d="M1.922-23.219V-3.492C1.922-1.645,1.473-.547.3-.25V0H11.023V-.25C9.852-.547,9.4-1.645,9.4-3.492V-9.926a1.98,1.98,0,0,1,.172.426c.9,2.691,2,4.461,2.5,5.836.8,2.191.723,2.84-.426,3.414V0h11V-.25c-1.273,0-2.2-1.7-4.09-6.258-1.324-3.191-2.77-6.734-3.543-8.8.324-.324.625-.648.949-.945C18.055-18.2,21.273-19.6,22.895-19.6v-.25H12.219v.25c3.191.5,3.391,3.043,1.348,5.238L9.4-9.926V-28.9h-.25a27.259,27.259,0,0,1-8.9,2.145v.25C.871-26.508,1.922-25.562,1.922-23.219Zm0,0" fill="#fdf3dd"/>
        </g>
      </g>
    </g>
    <g id="Group_30" data-name="Group 30" clip-path="url(#clip-path-3)">
      <path id="Path_13" data-name="Path 13" d="M177.746,22.25a10.7,10.7,0,1,0,10.7,10.7A10.708,10.708,0,0,0,177.746,22.25Zm6.008,11.734h-4.973v4.973a1.035,1.035,0,0,1-2.07,0V33.984h-4.977a1.035,1.035,0,0,1,0-2.07h4.977V26.938a1.035,1.035,0,0,1,2.07,0v4.977h4.973a1.035,1.035,0,0,1,0,2.07Zm0,0" fill="#fdf3dd"/>
    </g>
    <g id="Group_31" data-name="Group 31" clip-path="url(#clip-path-4)">
      <path id="Path_15" data-name="Path 15" d="M82.379,32.266S86.5,27.652,95.586,38.41s7.816,41.492,0,35.348S78.5,47.621,82.379,32.266Zm37.277,64.605s-5.789,2.207-8.914-11.539S122.9,44.895,127.016,53.945,130.156,85,119.656,96.871ZM73.848,89.449s.637-6.164,14.32-2.766,30.613,29.082,20.688,28.664S79.7,104.188,73.848,89.449Zm0,0" fill="#fdf3dd"/>
    </g>
  </g>
</svg>
